<svg width="300" height="250" viewBox="0 0 300 250" fill="none" xmlns="http://www.w3.org/2000/svg">
<g filter="url(#filter0_d)">
<path fill-rule="evenodd" clip-rule="evenodd" d="M158.22 53.0648L203.753 44.4359C211.825 36.3648 231.188 23.4523 244.075 36.3716C256.961 49.2909 243.779 68.3466 236.154 76.8367L228.726 123.571L118.715 233.582L48.2087 163.076L158.22 53.0648ZM236.15 60.7035C231.696 65.1573 224.475 65.1573 220.021 60.7035C215.567 56.2497 215.567 49.0287 220.021 44.5749C224.475 40.1212 231.696 40.1212 236.15 44.5749C240.603 49.0287 240.603 56.2497 236.15 60.7035ZM105.81 184.324C105.704 185.343 105.274 186.228 104.522 186.981C103.435 188.067 102.215 188.52 100.863 188.337C99.5097 188.155 98.1227 187.353 96.7015 185.932L96.3025 185.533C94.8433 184.073 94.0225 182.667 93.8401 181.315C93.6577 179.947 94.1023 178.727 95.1739 177.655C95.9719 176.857 96.8991 176.447 97.9555 176.424C99.0119 176.386 99.9696 176.736 100.828 177.473L102.823 175.478C101.44 174.216 99.8746 173.631 98.1265 173.722C96.3861 173.806 94.8243 174.539 93.4411 175.922C92.3162 177.047 91.598 178.282 91.2864 179.627C90.9824 180.965 91.0774 182.322 91.5714 183.697C92.0654 185.073 92.9128 186.361 94.1137 187.562L94.4671 187.915C96.4127 189.861 98.4419 190.902 100.555 191.039C102.668 191.161 104.564 190.382 106.243 188.702C107.079 187.866 107.68 186.886 108.045 185.761C108.417 184.628 108.508 183.519 108.318 182.432C108.128 181.345 107.699 180.429 107.03 179.684L105.035 181.679C105.658 182.424 105.917 183.306 105.81 184.324ZM119.308 172.582C120.007 173.129 120.539 173.464 120.904 173.585L123.116 171.374L122.933 171.191C121.976 170.811 120.931 170.055 119.798 168.923L114.121 163.245C112.844 162.029 111.45 161.471 109.937 161.57C108.417 161.661 106.946 162.417 105.525 163.838C104.628 164.735 103.971 165.727 103.553 166.814C103.143 167.893 103.006 168.942 103.143 169.96C103.279 170.963 103.656 171.773 104.271 172.388L106.392 170.268C105.852 169.728 105.647 169.014 105.776 168.125C105.905 167.235 106.346 166.415 107.098 165.662C107.957 164.803 108.828 164.374 109.709 164.374C110.583 164.366 111.389 164.731 112.126 165.468L113.095 166.437L111.043 168.489C109.272 170.26 108.254 171.993 107.988 173.688C107.722 175.368 108.231 176.85 109.515 178.134C110.572 179.19 111.833 179.677 113.3 179.593C114.767 179.494 116.108 178.837 117.324 177.621C118.685 176.261 119.346 174.581 119.308 172.582ZM117.165 173.084C116.914 174.019 116.458 174.817 115.797 175.478C115.105 176.169 114.353 176.549 113.54 176.618C112.726 176.686 111.989 176.39 111.328 175.729C109.816 174.216 110.351 172.168 112.935 169.584L114.588 167.931L117.119 170.462C117.4 171.275 117.416 172.149 117.165 173.084ZM116.515 153.304L113.528 150.318L111.419 152.427L114.406 155.413L112.16 157.659L113.79 159.289L116.036 157.044L123.686 164.693C124.735 165.742 125.783 166.312 126.832 166.403C127.881 166.494 128.877 166.069 129.819 165.126C130.343 164.602 130.807 163.986 131.21 163.28L129.5 161.57C129.165 162.086 128.877 162.466 128.633 162.71C128.139 163.204 127.668 163.432 127.22 163.394C126.764 163.348 126.289 163.078 125.795 162.584L118.145 154.935L120.448 152.632L118.818 151.002L116.515 153.304ZM133.25 158.412C135.394 158.457 137.301 157.644 138.973 155.972C141.041 153.905 141.797 151.56 141.242 148.938L138.951 149.223C139.065 150.112 139.015 150.967 138.802 151.788C138.59 152.609 138.111 153.392 137.366 154.137C136.317 155.185 135.078 155.679 133.65 155.619C132.221 155.543 130.883 154.912 129.637 153.726L137.993 145.37L137.115 144.492C135.147 142.524 133.19 141.456 131.244 141.289C129.298 141.121 127.524 141.84 125.92 143.443C124.94 144.424 124.301 145.609 124.005 147C123.709 148.376 123.807 149.782 124.301 151.218C124.795 152.639 125.654 153.962 126.878 155.185L127.265 155.573C129.105 157.412 131.1 158.358 133.25 158.412ZM126.445 148.254C126.399 147.053 126.802 146.027 127.653 145.176C128.535 144.294 129.53 143.892 130.64 143.968C131.742 144.036 132.859 144.576 133.992 145.586L134.151 145.746L127.972 151.925C126.992 150.671 126.483 149.447 126.445 148.254ZM135.987 136.797C136.23 138.819 137.313 140.791 139.236 142.714C141.242 144.72 143.271 145.86 145.323 146.134C147.383 146.4 149.135 145.811 150.579 144.367C152.038 142.907 152.703 141.27 152.574 139.453L153.634 140.513C154.683 141.562 155.207 142.664 155.207 143.819C155.215 144.967 154.706 146.054 153.68 147.08C152.372 148.387 150.708 148.934 148.686 148.722L148.857 151.081C149.967 151.294 151.137 151.165 152.369 150.694C153.6 150.223 154.66 149.542 155.549 148.653C157.145 147.057 157.955 145.328 157.978 143.466C158.008 141.596 157.225 139.864 155.629 138.268L143.59 126.229L141.664 128.156L142.929 129.626C141.022 129.406 139.315 130.048 137.811 131.553C136.344 133.02 135.736 134.768 135.987 136.797ZM145.734 143.261C144.366 143.033 142.986 142.223 141.595 140.833C140.03 139.267 139.137 137.796 138.916 136.421C138.696 135.045 139.099 133.844 140.125 132.818C141.417 131.526 142.975 131.146 144.799 131.678L150.431 137.31C151.016 139.142 150.643 140.722 149.313 142.052C148.287 143.078 147.094 143.481 145.734 143.261ZM149.724 125.682C150.218 127.118 151.069 128.441 152.277 129.649L152.426 129.797C154.341 131.712 156.397 132.735 158.593 132.864C160.797 132.985 162.735 132.21 164.407 130.538C165.517 129.429 166.231 128.182 166.55 126.799C166.877 125.408 166.794 124.01 166.3 122.604C165.806 121.182 164.958 119.871 163.757 118.671L163.609 118.522C161.679 116.592 159.612 115.566 157.407 115.444C155.211 115.315 153.273 116.09 151.593 117.77C150.507 118.857 149.8 120.088 149.473 121.464C149.154 122.832 149.237 124.238 149.724 125.682ZM158.89 130.128C157.43 129.93 156.017 129.147 154.649 127.779C153.106 126.237 152.239 124.732 152.049 123.265C151.859 121.798 152.285 120.544 153.326 119.503C154.39 118.439 155.663 118.009 157.145 118.215C158.627 118.405 160.045 119.176 161.398 120.529C162.91 122.041 163.773 123.535 163.985 125.009C164.191 126.476 163.757 127.745 162.686 128.817C161.622 129.881 160.356 130.318 158.89 130.128ZM166.835 106.609C167.208 106.237 167.58 105.918 167.953 105.652L165.992 103.691C165.673 103.797 165.308 104.056 164.897 104.466C163.628 105.735 163.199 107.267 163.609 109.06L162.15 107.669L160.098 109.721L172.433 122.056L174.542 119.947L165.787 111.192C165.103 109.52 165.452 107.992 166.835 106.609ZM180.527 113.962L182.636 111.853L170.301 99.5183L168.192 101.627L180.527 113.962ZM164.191 97.3523C164.221 97.7931 164.407 98.1845 164.749 98.5265C165.091 98.8685 165.479 99.0509 165.912 99.0737C166.353 99.0889 166.778 98.8913 167.189 98.4809C167.599 98.0705 167.797 97.6449 167.782 97.2041C167.766 96.7633 167.588 96.3718 167.246 96.0298C166.904 95.6878 166.509 95.5054 166.06 95.4826C165.612 95.4598 165.182 95.6536 164.772 96.064C164.362 96.4745 164.168 96.9039 164.191 97.3523ZM192.041 99.8489C192.74 100.396 193.272 100.731 193.637 100.852L195.849 98.6405L195.667 98.4581C194.709 98.0781 193.664 97.3219 192.531 96.1894L186.854 90.5122C185.577 89.2961 184.183 88.7375 182.67 88.8363C181.15 88.9275 179.68 89.6837 178.258 91.105C177.362 92.0018 176.704 92.9936 176.286 94.0804C175.876 95.1596 175.739 96.2084 175.876 97.2269C176.013 98.2301 176.389 99.0395 177.004 99.6551L179.125 97.5347C178.585 96.9951 178.38 96.2807 178.509 95.3914C178.638 94.5022 179.079 93.6814 179.832 92.929C180.69 92.0702 181.561 91.6408 182.442 91.6408C183.316 91.6332 184.122 91.998 184.859 92.7352L185.828 93.7042L183.776 95.7562C182.005 97.5271 180.987 99.2599 180.721 100.955C180.455 102.634 180.964 104.116 182.249 105.401C183.305 106.457 184.567 106.944 186.033 106.86C187.5 106.761 188.842 106.104 190.058 104.888C191.418 103.527 192.079 101.848 192.041 99.8489ZM189.898 100.351C189.647 101.285 189.191 102.083 188.53 102.745C187.838 103.436 187.086 103.816 186.273 103.885C185.46 103.953 184.722 103.657 184.061 102.995C182.549 101.483 183.085 99.4347 185.669 96.8507L187.322 95.1976L189.852 97.7285C190.134 98.5417 190.149 99.4157 189.898 100.351ZM200.66 84.6411C201.405 84.5195 202.062 84.7437 202.632 85.3137C203.172 85.8533 203.362 86.5297 203.202 87.3429C203.042 88.1409 202.564 88.9389 201.766 89.7369C200.899 90.6034 199.995 91.0974 199.052 91.219C198.11 91.3254 197.266 91.0442 196.522 90.3753L194.413 92.4844C195.142 93.214 196.035 93.6814 197.092 93.8866C198.148 94.0766 199.231 93.9664 200.341 93.556C201.45 93.1456 202.499 92.4464 203.487 91.4584C204.893 90.0523 205.706 88.5779 205.927 87.0351C206.139 85.4847 205.695 84.1584 204.593 83.0564C203.932 82.3952 203.213 81.9962 202.438 81.8594C201.663 81.7074 200.785 81.7948 199.805 82.1216C198.824 82.4484 197.688 83.0222 196.396 83.843C195.112 84.6563 194.139 85.1351 193.478 85.2795C192.816 85.4239 192.231 85.2415 191.722 84.7323C191.182 84.1926 190.962 83.539 191.061 82.7714C191.16 82.0038 191.593 81.2362 192.36 80.4686C193.105 79.7238 193.93 79.3172 194.834 79.2488C195.746 79.1728 196.491 79.4236 197.069 80.0012L199.189 77.8807C198.064 76.7559 196.704 76.2695 195.108 76.4215C193.519 76.5659 192.026 77.3373 190.628 78.7358C189.298 80.0658 188.553 81.5098 188.393 83.0678C188.241 84.6183 188.671 85.8989 189.681 86.9097C190.289 87.5177 190.962 87.8939 191.699 88.0383C192.444 88.1751 193.288 88.0915 194.23 87.7875C195.18 87.4759 196.301 86.9021 197.593 86.0661C198.893 85.2225 199.915 84.7475 200.66 84.6411Z" fill="#EAC461" fill-opacity="0.8" shape-rendering="crispEdges"/>
</g>
<defs>
<filter id="filter0_d" x="48.2086" y="1.79083" width="233.873" height="233.873" filterUnits="userSpaceOnUse" color-interpolation-filters="sRGB">
<feFlood flood-opacity="0" result="BackgroundImageFix"/>
<feColorMatrix in="SourceAlpha" type="matrix" values="0 0 0 0 0 0 0 0 0 0 0 0 0 0 0 0 0 0 127 0" result="hardAlpha"/>
<feOffset dx="1.04077" dy="1.04077"/>
<feGaussianBlur stdDeviation="0.520386"/>
<feComposite in2="hardAlpha" operator="out"/>
<feColorMatrix type="matrix" values="0 0 0 0 0 0 0 0 0 0 0 0 0 0 0 0 0 0 0.25 0"/>
<feBlend mode="normal" in2="BackgroundImageFix" result="effect1_dropShadow"/>
<feBlend mode="normal" in="SourceGraphic" in2="effect1_dropShadow" result="shape"/>
</filter>
</defs>
</svg>
