<svg width="300" height="250" viewBox="0 0 300 250" fill="none" xmlns="http://www.w3.org/2000/svg">
<g clip-path="url(#clip0)">
<path d="M10.5757 217.964L17.6972 128.667L28.6135 129.538L21.492 218.834L10.5757 217.964Z" fill="#543D22" fill-opacity="0.5" stroke="#543D22" stroke-opacity="0.6"/>
<path d="M11.8513 213.513L18.2511 133.265L27.3379 133.989L20.9381 214.237L11.8513 213.513Z" fill="#543D22" fill-opacity="0.5"/>
<path d="M258.267 159.58V69.0565H269.218V159.58H258.267Z" fill="#543D22" fill-opacity="0.5" stroke="#543D22" stroke-opacity="0.6"/>
<path d="M259.184 154.994V73.6426H268.3V154.994H259.184Z" fill="#543D22" fill-opacity="0.5"/>
<path d="M280 159.58H20V219.58H280V159.58Z" fill="#2F271D" fill-opacity="0.5"/>
<path d="M270.281 161.823H29.7193V217.337H270.281V161.823Z" fill="#2F271D" fill-opacity="0.5"/>
<path d="M278.497 161.799L22.0811 161.236C20.4242 161.232 19.084 159.886 19.0877 158.229L19.1371 135.732C19.1383 135.207 19.2903 134.666 19.5593 134.215C32.6032 112.35 44.8977 123.781 49.9786 130.822C51.2857 132.633 53.6295 132.624 54.8364 130.744C65.55 114.057 76.973 123.908 82.2196 130.54C83.684 132.392 86.8188 132.474 88.2714 130.614C99.6179 116.081 109.324 121.965 114.814 129.742C116.263 131.795 119.649 131.853 121.116 129.813C130.811 116.335 141.345 122.977 147.593 130.813C149.053 132.645 152.068 132.555 153.406 130.632C163.44 116.213 173.848 122.867 179.895 130.811C181.314 132.675 184.328 132.672 185.712 130.781C196.212 116.431 206.519 122.773 212.493 130.605C213.952 132.518 217.099 132.482 218.464 130.5C228.853 115.419 239.419 122.546 245.467 130.905C246.838 132.801 249.839 132.863 251.235 130.985C264.648 112.95 276.493 125.311 281.261 134.903C281.46 135.302 281.554 135.738 281.553 136.183L281.503 158.806C281.499 160.462 280.153 161.803 278.497 161.799Z" fill="#CB4D4D" fill-opacity="0.51"/>
<path d="M278.496 161.816L22.081 161.253C20.4242 161.249 19.084 159.903 19.0876 158.246L19.13 138.947C19.1313 138.365 19.3153 137.771 19.6429 137.29C32.2725 118.743 44.1926 127.688 49.5143 133.895C51.0133 135.643 53.8548 135.64 55.2488 133.807C65.4633 120.375 76.2457 127.853 81.6435 133.582C83.3164 135.357 87.1602 135.449 88.8146 133.656C100.002 121.534 109.542 126.832 114.924 133.653C116.394 135.516 119.493 135.574 120.98 133.725C130.781 121.541 141.469 127.605 147.727 134.615C149.19 136.255 151.935 136.174 153.287 134.441C163.423 121.45 173.965 127.515 180.016 134.614C181.441 136.286 184.185 136.289 185.578 134.591C196.197 121.645 206.642 127.44 212.62 134.447C214.088 136.168 216.957 136.138 218.34 134.348C228.829 120.769 239.523 127.245 245.575 134.706C246.957 136.41 249.689 136.478 251.095 134.794C264.491 118.742 276.35 129.503 281.183 137.972C281.429 138.404 281.547 138.891 281.546 139.388L281.503 158.823C281.499 160.479 280.153 161.82 278.496 161.816Z" fill="#CB4D4D" fill-opacity="0.51"/>
<path d="M0 222.72H302.9" stroke="#6A431F" stroke-opacity="0.72" stroke-width="5"/>
<path d="M2.90633 221.876C2.85685 220.738 2.46102 218.165 1.27353 216.977" stroke="#498048" stroke-opacity="0.72" stroke-linecap="round" stroke-linejoin="round"/>
<path d="M4.79751 221.483C4.14504 220.25 3.33722 217.382 5.3257 215.766" stroke="#498048" stroke-opacity="0.72" stroke-linecap="round" stroke-linejoin="round"/>
<path d="M7.58737 221.028C6.88404 220.63 5.58745 219.505 6.0278 218.184" stroke="#498048" stroke-opacity="0.72" stroke-linecap="round" stroke-linejoin="round"/>
<path d="M13.7339 221.303C13.4893 220.416 13.3853 218.312 14.9265 216.991" stroke="#498048" stroke-opacity="0.72" stroke-linecap="round" stroke-linejoin="round"/>
<path d="M16.7613 221.395C16.9448 220.355 17.2017 218.092 16.7613 217.358" stroke="#498048" stroke-opacity="0.72" stroke-linecap="round" stroke-linejoin="round"/>
<path d="M3.54562 225.053C3.49614 223.915 3.10031 221.342 1.91282 220.154" stroke="#498048" stroke-opacity="0.72" stroke-linecap="round" stroke-linejoin="round"/>
<path d="M5.43681 224.66C4.78434 223.427 3.97652 220.558 5.965 218.943" stroke="#498048" stroke-opacity="0.72" stroke-linecap="round" stroke-linejoin="round"/>
<path d="M8.22667 224.205C7.52333 223.807 6.22675 222.682 6.6671 221.361" stroke="#498048" stroke-opacity="0.72" stroke-linecap="round" stroke-linejoin="round"/>
<path d="M14.3732 224.48C14.1286 223.593 14.0246 221.489 15.5658 220.168" stroke="#498048" stroke-opacity="0.72" stroke-linecap="round" stroke-linejoin="round"/>
<path d="M17.4006 224.572C17.5841 223.532 17.841 221.269 17.4006 220.535" stroke="#498048" stroke-opacity="0.72" stroke-linecap="round" stroke-linejoin="round"/>
<path d="M15.2244 223.785C15.1749 222.647 14.7791 220.074 13.5916 218.886" stroke="#498048" stroke-opacity="0.72" stroke-linecap="round" stroke-linejoin="round"/>
<path d="M17.1156 223.392C16.4631 222.16 15.6553 219.291 17.6438 217.675" stroke="#498048" stroke-opacity="0.72" stroke-linecap="round" stroke-linejoin="round"/>
<path d="M19.9054 222.937C19.2021 222.539 17.9055 221.414 18.3459 220.093" stroke="#498048" stroke-opacity="0.72" stroke-linecap="round" stroke-linejoin="round"/>
<path d="M26.052 223.212C25.8073 222.325 25.7034 220.221 27.2446 218.9" stroke="#498048" stroke-opacity="0.72" stroke-linecap="round" stroke-linejoin="round"/>
<path d="M29.0794 223.304C29.2628 222.264 29.5197 220.001 29.0794 219.267" stroke="#498048" stroke-opacity="0.72" stroke-linecap="round" stroke-linejoin="round"/>
<path d="M34.125 220.91C34.0756 219.772 33.6797 217.199 32.4922 216.011" stroke="#498048" stroke-opacity="0.72" stroke-linecap="round" stroke-linejoin="round"/>
<path d="M36.0162 220.517C35.3638 219.285 34.5559 216.416 36.5444 214.8" stroke="#498048" stroke-opacity="0.72" stroke-linecap="round" stroke-linejoin="round"/>
<path d="M38.8061 220.062C38.1028 219.664 36.8062 218.539 37.2465 217.218" stroke="#498048" stroke-opacity="0.72" stroke-linecap="round" stroke-linejoin="round"/>
<path d="M44.9526 220.337C44.708 219.45 44.604 217.346 46.1453 216.025" stroke="#498048" stroke-opacity="0.72" stroke-linecap="round" stroke-linejoin="round"/>
<path d="M47.98 220.429C48.1635 219.389 48.4204 217.126 47.98 216.392" stroke="#498048" stroke-opacity="0.72" stroke-linecap="round" stroke-linejoin="round"/>
<path d="M18.6373 222.431C18.5878 221.293 18.1919 218.72 17.0045 217.533" stroke="#498048" stroke-opacity="0.72" stroke-linecap="round" stroke-linejoin="round"/>
<path d="M20.5284 222.038C19.876 220.806 19.0682 217.937 21.0566 216.321" stroke="#498048" stroke-opacity="0.72" stroke-linecap="round" stroke-linejoin="round"/>
<path d="M23.3183 221.583C22.615 221.186 21.3184 220.06 21.7587 218.739" stroke="#498048" stroke-opacity="0.72" stroke-linecap="round" stroke-linejoin="round"/>
<path d="M29.4648 221.858C29.2202 220.972 29.1162 218.868 30.6575 217.547" stroke="#498048" stroke-opacity="0.72" stroke-linecap="round" stroke-linejoin="round"/>
<path d="M32.4923 221.95C32.6757 220.91 32.9326 218.647 32.4923 217.914" stroke="#498048" stroke-opacity="0.72" stroke-linecap="round" stroke-linejoin="round"/>
<path d="M30.9553 222.431C30.9058 221.293 30.51 218.72 29.3225 217.533" stroke="#498048" stroke-opacity="0.72" stroke-linecap="round" stroke-linejoin="round"/>
<path d="M32.8465 222.038C32.194 220.806 31.3862 217.937 33.3747 216.321" stroke="#498048" stroke-opacity="0.72" stroke-linecap="round" stroke-linejoin="round"/>
<path d="M35.6364 221.583C34.933 221.186 33.6364 220.06 34.0768 218.739" stroke="#498048" stroke-opacity="0.72" stroke-linecap="round" stroke-linejoin="round"/>
<path d="M41.7829 221.858C41.5383 220.972 41.4343 218.868 42.9755 217.547" stroke="#498048" stroke-opacity="0.72" stroke-linecap="round" stroke-linejoin="round"/>
<path d="M44.8103 221.95C44.9938 220.91 45.2507 218.647 44.8103 217.914" stroke="#498048" stroke-opacity="0.72" stroke-linecap="round" stroke-linejoin="round"/>
<path d="M34.3682 221.303C34.3187 220.165 33.9229 217.592 32.7354 216.404" stroke="#498048" stroke-opacity="0.72" stroke-linecap="round" stroke-linejoin="round"/>
<path d="M36.2594 220.91C35.6069 219.677 34.7991 216.809 36.7876 215.193" stroke="#498048" stroke-opacity="0.72" stroke-linecap="round" stroke-linejoin="round"/>
<path d="M39.0492 220.455C38.3459 220.057 37.0493 218.932 37.4897 217.611" stroke="#498048" stroke-opacity="0.72" stroke-linecap="round" stroke-linejoin="round"/>
<path d="M45.1958 220.73C44.9511 219.843 44.8472 217.739 46.3884 216.418" stroke="#498048" stroke-opacity="0.72" stroke-linecap="round" stroke-linejoin="round"/>
<path d="M48.2232 220.822C48.4067 219.782 48.6635 217.519 48.2232 216.785" stroke="#498048" stroke-opacity="0.72" stroke-linecap="round" stroke-linejoin="round"/>
<path d="M21.4323 222.635C21.3828 221.497 20.987 218.924 19.7995 217.736" stroke="#498048" stroke-opacity="0.72" stroke-linecap="round" stroke-linejoin="round"/>
<path d="M23.3234 222.242C22.671 221.009 21.8632 218.141 23.8516 216.525" stroke="#498048" stroke-opacity="0.72" stroke-linecap="round" stroke-linejoin="round"/>
<path d="M26.1133 221.787C25.41 221.389 24.1134 220.264 24.5537 218.943" stroke="#498048" stroke-opacity="0.72" stroke-linecap="round" stroke-linejoin="round"/>
<path d="M32.2599 222.062C32.0152 221.175 31.9112 219.071 33.4525 217.75" stroke="#498048" stroke-opacity="0.72" stroke-linecap="round" stroke-linejoin="round"/>
<path d="M35.2873 222.154C35.4707 221.114 35.7276 218.851 35.2873 218.117" stroke="#498048" stroke-opacity="0.72" stroke-linecap="round" stroke-linejoin="round"/>
<path d="M28.8774 225.209C28.8279 224.071 28.4321 221.498 27.2446 220.31" stroke="#498048" stroke-opacity="0.72" stroke-linecap="round" stroke-linejoin="round"/>
<path d="M30.7686 224.816C30.1161 223.583 29.3083 220.714 31.2968 219.099" stroke="#498048" stroke-opacity="0.72" stroke-linecap="round" stroke-linejoin="round"/>
<path d="M33.5584 224.361C32.8551 223.963 31.5585 222.838 31.9989 221.517" stroke="#498048" stroke-opacity="0.72" stroke-linecap="round" stroke-linejoin="round"/>
<path d="M39.705 224.636C39.4603 223.749 39.3564 221.645 40.8976 220.324" stroke="#498048" stroke-opacity="0.72" stroke-linecap="round" stroke-linejoin="round"/>
<path d="M42.7324 224.728C42.9159 223.688 43.1727 221.425 42.7324 220.691" stroke="#498048" stroke-opacity="0.72" stroke-linecap="round" stroke-linejoin="round"/>
<path d="M258.036 221.239C257.987 220.101 257.591 217.528 256.404 216.34" stroke="#498048" stroke-opacity="0.72" stroke-linecap="round" stroke-linejoin="round"/>
<path d="M259.928 220.846C259.275 219.613 258.467 216.744 260.456 215.129" stroke="#498048" stroke-opacity="0.72" stroke-linecap="round" stroke-linejoin="round"/>
<path d="M262.717 220.391C262.014 219.993 260.718 218.868 261.158 217.547" stroke="#498048" stroke-opacity="0.72" stroke-linecap="round" stroke-linejoin="round"/>
<path d="M268.864 220.666C268.619 219.779 268.515 217.675 270.057 216.354" stroke="#498048" stroke-opacity="0.72" stroke-linecap="round" stroke-linejoin="round"/>
<path d="M271.891 220.758C272.075 219.718 272.332 217.455 271.891 216.721" stroke="#498048" stroke-opacity="0.72" stroke-linecap="round" stroke-linejoin="round"/>
<path d="M258.676 224.415C258.626 223.277 258.23 220.705 257.043 219.517" stroke="#498048" stroke-opacity="0.72" stroke-linecap="round" stroke-linejoin="round"/>
<path d="M260.567 224.023C259.914 222.79 259.107 219.921 261.095 218.306" stroke="#498048" stroke-opacity="0.72" stroke-linecap="round" stroke-linejoin="round"/>
<path d="M263.357 223.568C262.653 223.17 261.357 222.045 261.797 220.724" stroke="#498048" stroke-opacity="0.72" stroke-linecap="round" stroke-linejoin="round"/>
<path d="M269.503 223.843C269.259 222.956 269.155 220.852 270.696 219.531" stroke="#498048" stroke-opacity="0.72" stroke-linecap="round" stroke-linejoin="round"/>
<path d="M272.531 223.934C272.714 222.895 272.971 220.632 272.531 219.898" stroke="#498048" stroke-opacity="0.72" stroke-linecap="round" stroke-linejoin="round"/>
<path d="M270.354 223.148C270.305 222.01 269.909 219.437 268.722 218.249" stroke="#498048" stroke-opacity="0.72" stroke-linecap="round" stroke-linejoin="round"/>
<path d="M272.246 222.755C271.593 221.522 270.785 218.654 272.774 217.038" stroke="#498048" stroke-opacity="0.72" stroke-linecap="round" stroke-linejoin="round"/>
<path d="M275.035 222.3C274.332 221.902 273.036 220.777 273.476 219.456" stroke="#498048" stroke-opacity="0.72" stroke-linecap="round" stroke-linejoin="round"/>
<path d="M281.182 222.575C280.937 221.688 280.833 219.584 282.375 218.263" stroke="#498048" stroke-opacity="0.72" stroke-linecap="round" stroke-linejoin="round"/>
<path d="M284.209 222.667C284.393 221.627 284.65 219.364 284.209 218.63" stroke="#498048" stroke-opacity="0.72" stroke-linecap="round" stroke-linejoin="round"/>
<path d="M289.255 220.273C289.206 219.135 288.81 216.562 287.622 215.374" stroke="#498048" stroke-opacity="0.72" stroke-linecap="round" stroke-linejoin="round"/>
<path d="M291.146 219.88C290.494 218.647 289.686 215.779 291.675 214.163" stroke="#498048" stroke-opacity="0.72" stroke-linecap="round" stroke-linejoin="round"/>
<path d="M293.936 219.425C293.233 219.027 291.936 217.902 292.377 216.581" stroke="#498048" stroke-opacity="0.72" stroke-linecap="round" stroke-linejoin="round"/>
<path d="M300.083 219.7C299.838 218.813 299.734 216.709 301.275 215.388" stroke="#498048" stroke-opacity="0.72" stroke-linecap="round" stroke-linejoin="round"/>
<path d="M273.767 221.794C273.718 220.656 273.322 218.083 272.135 216.896" stroke="#498048" stroke-opacity="0.72" stroke-linecap="round" stroke-linejoin="round"/>
<path d="M275.659 221.401C275.006 220.169 274.198 217.3 276.187 215.684" stroke="#498048" stroke-opacity="0.72" stroke-linecap="round" stroke-linejoin="round"/>
<path d="M278.448 220.946C277.745 220.549 276.448 219.423 276.889 218.102" stroke="#498048" stroke-opacity="0.72" stroke-linecap="round" stroke-linejoin="round"/>
<path d="M284.595 221.221C284.35 220.334 284.246 218.231 285.788 216.91" stroke="#498048" stroke-opacity="0.72" stroke-linecap="round" stroke-linejoin="round"/>
<path d="M287.622 221.313C287.806 220.273 288.063 218.01 287.622 217.276" stroke="#498048" stroke-opacity="0.72" stroke-linecap="round" stroke-linejoin="round"/>
<path d="M286.085 221.794C286.036 220.656 285.64 218.083 284.453 216.896" stroke="#498048" stroke-opacity="0.72" stroke-linecap="round" stroke-linejoin="round"/>
<path d="M287.977 221.401C287.324 220.169 286.516 217.3 288.505 215.684" stroke="#498048" stroke-opacity="0.72" stroke-linecap="round" stroke-linejoin="round"/>
<path d="M290.766 220.946C290.063 220.549 288.767 219.423 289.207 218.102" stroke="#498048" stroke-opacity="0.72" stroke-linecap="round" stroke-linejoin="round"/>
<path d="M296.913 221.221C296.668 220.334 296.564 218.231 298.106 216.91" stroke="#498048" stroke-opacity="0.72" stroke-linecap="round" stroke-linejoin="round"/>
<path d="M299.94 221.313C300.124 220.273 300.381 218.01 299.94 217.276" stroke="#498048" stroke-opacity="0.72" stroke-linecap="round" stroke-linejoin="round"/>
<path d="M289.498 220.666C289.449 219.528 289.053 216.955 287.865 215.767" stroke="#498048" stroke-opacity="0.72" stroke-linecap="round" stroke-linejoin="round"/>
<path d="M291.389 220.273C290.737 219.04 289.929 216.172 291.918 214.556" stroke="#498048" stroke-opacity="0.72" stroke-linecap="round" stroke-linejoin="round"/>
<path d="M294.179 219.818C293.476 219.42 292.179 218.295 292.62 216.974" stroke="#498048" stroke-opacity="0.72" stroke-linecap="round" stroke-linejoin="round"/>
<path d="M300.326 220.093C300.081 219.206 299.977 217.102 301.518 215.781" stroke="#498048" stroke-opacity="0.72" stroke-linecap="round" stroke-linejoin="round"/>
<path d="M276.562 221.998C276.513 220.86 276.117 218.287 274.93 217.099" stroke="#498048" stroke-opacity="0.72" stroke-linecap="round" stroke-linejoin="round"/>
<path d="M278.454 221.605C277.801 220.372 276.993 217.503 278.982 215.888" stroke="#498048" stroke-opacity="0.72" stroke-linecap="round" stroke-linejoin="round"/>
<path d="M281.243 221.15C280.54 220.752 279.243 219.627 279.684 218.306" stroke="#498048" stroke-opacity="0.72" stroke-linecap="round" stroke-linejoin="round"/>
<path d="M287.39 221.425C287.145 220.538 287.041 218.434 288.583 217.113" stroke="#498048" stroke-opacity="0.72" stroke-linecap="round" stroke-linejoin="round"/>
<path d="M290.417 221.517C290.601 220.477 290.858 218.214 290.417 217.48" stroke="#498048" stroke-opacity="0.72" stroke-linecap="round" stroke-linejoin="round"/>
<path d="M284.007 224.571C283.958 223.433 283.562 220.861 282.375 219.673" stroke="#498048" stroke-opacity="0.72" stroke-linecap="round" stroke-linejoin="round"/>
<path d="M285.899 224.179C285.246 222.946 284.438 220.077 286.427 218.462" stroke="#498048" stroke-opacity="0.72" stroke-linecap="round" stroke-linejoin="round"/>
<path d="M288.688 223.724C287.985 223.326 286.689 222.201 287.129 220.88" stroke="#498048" stroke-opacity="0.72" stroke-linecap="round" stroke-linejoin="round"/>
<path d="M294.835 223.999C294.59 223.112 294.486 221.008 296.028 219.687" stroke="#498048" stroke-opacity="0.72" stroke-linecap="round" stroke-linejoin="round"/>
<path d="M297.862 224.09C298.046 223.051 298.303 220.788 297.862 220.054" stroke="#498048" stroke-opacity="0.72" stroke-linecap="round" stroke-linejoin="round"/>
<path d="M49.6128 219.971C49.5634 218.833 49.1675 216.26 47.98 215.073" stroke="#498048" stroke-opacity="0.72" stroke-linecap="round" stroke-linejoin="round"/>
<path d="M51.504 219.578C50.8516 218.346 50.0437 215.477 52.0322 213.861" stroke="#498048" stroke-opacity="0.72" stroke-linecap="round" stroke-linejoin="round"/>
<path d="M54.2939 219.123C53.5906 218.725 52.294 217.6 52.7343 216.279" stroke="#498048" stroke-opacity="0.72" stroke-linecap="round" stroke-linejoin="round"/>
<path d="M60.4404 219.398C60.1958 218.511 60.0918 216.407 61.633 215.086" stroke="#498048" stroke-opacity="0.72" stroke-linecap="round" stroke-linejoin="round"/>
<path d="M63.4678 219.49C63.6513 218.45 63.9082 216.187 63.4678 215.453" stroke="#498048" stroke-opacity="0.72" stroke-linecap="round" stroke-linejoin="round"/>
<path d="M50.2521 223.148C50.2027 222.01 49.8068 219.437 48.6193 218.249" stroke="#498048" stroke-opacity="0.72" stroke-linecap="round" stroke-linejoin="round"/>
<path d="M52.1433 222.755C51.4909 221.522 50.683 218.654 52.6715 217.038" stroke="#498048" stroke-opacity="0.72" stroke-linecap="round" stroke-linejoin="round"/>
<path d="M54.9332 222.3C54.2298 221.902 52.9333 220.777 53.3736 219.456" stroke="#498048" stroke-opacity="0.72" stroke-linecap="round" stroke-linejoin="round"/>
<path d="M61.0797 222.575C60.8351 221.688 60.7311 219.584 62.2723 218.263" stroke="#498048" stroke-opacity="0.72" stroke-linecap="round" stroke-linejoin="round"/>
<path d="M64.1071 222.667C64.2906 221.627 64.5475 219.364 64.1071 218.63" stroke="#498048" stroke-opacity="0.72" stroke-linecap="round" stroke-linejoin="round"/>
<path d="M61.9309 221.88C61.8814 220.742 61.4856 218.169 60.2981 216.982" stroke="#498048" stroke-opacity="0.72" stroke-linecap="round" stroke-linejoin="round"/>
<path d="M63.8221 221.487C63.1696 220.255 62.3618 217.386 64.3503 215.77" stroke="#498048" stroke-opacity="0.72" stroke-linecap="round" stroke-linejoin="round"/>
<path d="M66.6119 221.032C65.9086 220.635 64.612 219.509 65.0524 218.188" stroke="#498048" stroke-opacity="0.72" stroke-linecap="round" stroke-linejoin="round"/>
<path d="M72.7585 221.307C72.5138 220.42 72.4099 218.317 73.9511 216.995" stroke="#498048" stroke-opacity="0.72" stroke-linecap="round" stroke-linejoin="round"/>
<path d="M75.7859 221.399C75.9694 220.359 76.2262 218.096 75.7859 217.362" stroke="#498048" stroke-opacity="0.72" stroke-linecap="round" stroke-linejoin="round"/>
<path d="M80.8316 219.005C80.7821 217.867 80.3863 215.294 79.1988 214.107" stroke="#498048" stroke-opacity="0.72" stroke-linecap="round" stroke-linejoin="round"/>
<path d="M82.7228 218.612C82.0703 217.38 81.2625 214.511 83.2509 212.895" stroke="#498048" stroke-opacity="0.72" stroke-linecap="round" stroke-linejoin="round"/>
<path d="M85.5126 218.157C84.8093 217.76 83.5127 216.634 83.953 215.313" stroke="#498048" stroke-opacity="0.72" stroke-linecap="round" stroke-linejoin="round"/>
<path d="M91.6592 218.432C91.4145 217.545 91.3105 215.442 92.8518 214.12" stroke="#498048" stroke-opacity="0.72" stroke-linecap="round" stroke-linejoin="round"/>
<path d="M94.6866 218.524C94.87 217.484 95.1269 215.221 94.6866 214.487" stroke="#498048" stroke-opacity="0.72" stroke-linecap="round" stroke-linejoin="round"/>
<path d="M65.3438 220.526C65.2943 219.388 64.8985 216.816 63.711 215.628" stroke="#498048" stroke-opacity="0.72" stroke-linecap="round" stroke-linejoin="round"/>
<path d="M67.235 220.134C66.5825 218.901 65.7747 216.032 67.7632 214.417" stroke="#498048" stroke-opacity="0.72" stroke-linecap="round" stroke-linejoin="round"/>
<path d="M70.0248 219.678C69.3215 219.281 68.0249 218.156 68.4653 216.834" stroke="#498048" stroke-opacity="0.72" stroke-linecap="round" stroke-linejoin="round"/>
<path d="M76.1714 219.954C75.9267 219.067 75.8228 216.963 77.364 215.642" stroke="#498048" stroke-opacity="0.72" stroke-linecap="round" stroke-linejoin="round"/>
<path d="M79.1988 220.045C79.3822 219.006 79.6391 216.743 79.1988 216.009" stroke="#498048" stroke-opacity="0.72" stroke-linecap="round" stroke-linejoin="round"/>
<path d="M77.6618 220.526C77.6123 219.388 77.2165 216.816 76.029 215.628" stroke="#498048" stroke-opacity="0.72" stroke-linecap="round" stroke-linejoin="round"/>
<path d="M79.553 220.134C78.9005 218.901 78.0927 216.032 80.0812 214.417" stroke="#498048" stroke-opacity="0.72" stroke-linecap="round" stroke-linejoin="round"/>
<path d="M82.3429 219.678C81.6395 219.281 80.343 218.156 80.7833 216.834" stroke="#498048" stroke-opacity="0.72" stroke-linecap="round" stroke-linejoin="round"/>
<path d="M88.4894 219.954C88.2448 219.067 88.1408 216.963 89.682 215.642" stroke="#498048" stroke-opacity="0.72" stroke-linecap="round" stroke-linejoin="round"/>
<path d="M91.5168 220.045C91.7003 219.006 91.9572 216.743 91.5168 216.009" stroke="#498048" stroke-opacity="0.72" stroke-linecap="round" stroke-linejoin="round"/>
<path d="M81.0747 219.398C81.0252 218.26 80.6294 215.687 79.4419 214.5" stroke="#498048" stroke-opacity="0.72" stroke-linecap="round" stroke-linejoin="round"/>
<path d="M82.9659 219.005C82.3134 217.773 81.5056 214.904 83.4941 213.288" stroke="#498048" stroke-opacity="0.72" stroke-linecap="round" stroke-linejoin="round"/>
<path d="M85.7558 218.55C85.0524 218.152 83.7558 217.027 84.1962 215.706" stroke="#498048" stroke-opacity="0.72" stroke-linecap="round" stroke-linejoin="round"/>
<path d="M91.9023 218.825C91.6577 217.938 91.5537 215.834 93.0949 214.513" stroke="#498048" stroke-opacity="0.72" stroke-linecap="round" stroke-linejoin="round"/>
<path d="M94.9297 218.917C95.1132 217.877 95.3701 215.614 94.9297 214.88" stroke="#498048" stroke-opacity="0.72" stroke-linecap="round" stroke-linejoin="round"/>
<path d="M68.1388 220.73C68.0893 219.592 67.6935 217.019 66.506 215.832" stroke="#498048" stroke-opacity="0.72" stroke-linecap="round" stroke-linejoin="round"/>
<path d="M70.03 220.337C69.3775 219.105 68.5697 216.236 70.5582 214.62" stroke="#498048" stroke-opacity="0.72" stroke-linecap="round" stroke-linejoin="round"/>
<path d="M72.8198 219.882C72.1165 219.484 70.8199 218.359 71.2603 217.038" stroke="#498048" stroke-opacity="0.72" stroke-linecap="round" stroke-linejoin="round"/>
<path d="M78.9664 220.157C78.7217 219.27 78.6178 217.166 80.159 215.845" stroke="#498048" stroke-opacity="0.72" stroke-linecap="round" stroke-linejoin="round"/>
<path d="M81.9938 220.249C82.1773 219.209 82.4341 216.946 81.9938 216.212" stroke="#498048" stroke-opacity="0.72" stroke-linecap="round" stroke-linejoin="round"/>
<path d="M75.5839 223.304C75.5344 222.166 75.1386 219.593 73.9511 218.405" stroke="#498048" stroke-opacity="0.72" stroke-linecap="round" stroke-linejoin="round"/>
<path d="M77.4751 222.911C76.8226 221.678 76.0148 218.81 78.0033 217.194" stroke="#498048" stroke-opacity="0.72" stroke-linecap="round" stroke-linejoin="round"/>
<path d="M80.2649 222.456C79.5616 222.058 78.265 220.933 78.7054 219.612" stroke="#498048" stroke-opacity="0.72" stroke-linecap="round" stroke-linejoin="round"/>
<path d="M86.4115 222.731C86.1669 221.844 86.0629 219.74 87.6041 218.419" stroke="#498048" stroke-opacity="0.72" stroke-linecap="round" stroke-linejoin="round"/>
<path d="M89.4389 222.823C89.6224 221.783 89.8792 219.52 89.4389 218.786" stroke="#498048" stroke-opacity="0.72" stroke-linecap="round" stroke-linejoin="round"/>
<path d="M-0.0724089 220.533C-0.724879 219.301 -1.5327 216.432 0.455782 214.816" stroke="#498048" stroke-opacity="0.72" stroke-linecap="round" stroke-linejoin="round"/>
<path d="M2.71745 220.078C2.01411 219.68 0.71753 218.555 1.15788 217.234" stroke="#498048" stroke-opacity="0.72" stroke-linecap="round" stroke-linejoin="round"/>
<path d="M8.86399 220.353C8.61935 219.466 8.51538 217.362 10.0566 216.041" stroke="#498048" stroke-opacity="0.72" stroke-linecap="round" stroke-linejoin="round"/>
<path d="M11.8914 220.445C12.0749 219.405 12.3317 217.142 11.8914 216.408" stroke="#498048" stroke-opacity="0.72" stroke-linecap="round" stroke-linejoin="round"/>
<path d="M0.566889 223.71C-0.0855817 222.478 -0.893402 219.609 1.09508 217.993" stroke="#498048" stroke-opacity="0.72" stroke-linecap="round" stroke-linejoin="round"/>
<path d="M3.35675 223.255C2.65341 222.857 1.35683 221.732 1.79718 220.411" stroke="#498048" stroke-opacity="0.72" stroke-linecap="round" stroke-linejoin="round"/>
<path d="M9.50329 223.53C9.25865 222.643 9.15468 220.539 10.6959 219.218" stroke="#498048" stroke-opacity="0.72" stroke-linecap="round" stroke-linejoin="round"/>
<path d="M12.5307 223.622C12.7142 222.582 12.971 220.319 12.5307 219.585" stroke="#498048" stroke-opacity="0.72" stroke-linecap="round" stroke-linejoin="round"/>
<path d="M10.3545 222.835C10.305 221.697 9.90914 219.124 8.72165 217.937" stroke="#498048" stroke-opacity="0.72" stroke-linecap="round" stroke-linejoin="round"/>
<path d="M12.2456 222.442C11.5932 221.21 10.7854 218.341 12.7738 216.725" stroke="#498048" stroke-opacity="0.72" stroke-linecap="round" stroke-linejoin="round"/>
<path d="M15.0355 221.987C14.3322 221.59 13.0356 220.464 13.4759 219.143" stroke="#498048" stroke-opacity="0.72" stroke-linecap="round" stroke-linejoin="round"/>
<path d="M21.182 222.262C20.9374 221.375 20.8334 219.272 22.3747 217.951" stroke="#498048" stroke-opacity="0.72" stroke-linecap="round" stroke-linejoin="round"/>
<path d="M24.2094 222.354C24.3929 221.314 24.6498 219.051 24.2094 218.318" stroke="#498048" stroke-opacity="0.72" stroke-linecap="round" stroke-linejoin="round"/>
<path d="M29.2551 219.96C29.2056 218.822 28.8098 216.249 27.6223 215.062" stroke="#498048" stroke-opacity="0.72" stroke-linecap="round" stroke-linejoin="round"/>
<path d="M31.1463 219.567C30.4938 218.335 29.686 215.466 31.6745 213.85" stroke="#498048" stroke-opacity="0.72" stroke-linecap="round" stroke-linejoin="round"/>
<path d="M33.9362 219.112C33.2328 218.715 31.9363 217.589 32.3766 216.268" stroke="#498048" stroke-opacity="0.72" stroke-linecap="round" stroke-linejoin="round"/>
<path d="M40.0827 219.387C39.8381 218.5 39.7341 216.397 41.2753 215.076" stroke="#498048" stroke-opacity="0.72" stroke-linecap="round" stroke-linejoin="round"/>
<path d="M43.1101 219.479C43.2936 218.439 43.5505 216.176 43.1101 215.443" stroke="#498048" stroke-opacity="0.72" stroke-linecap="round" stroke-linejoin="round"/>
<path d="M13.7673 221.482C13.7179 220.344 13.322 217.771 12.1345 216.583" stroke="#498048" stroke-opacity="0.72" stroke-linecap="round" stroke-linejoin="round"/>
<path d="M15.6585 221.089C15.0061 219.856 14.1982 216.987 16.1867 215.372" stroke="#498048" stroke-opacity="0.72" stroke-linecap="round" stroke-linejoin="round"/>
<path d="M18.4484 220.634C17.745 220.236 16.4485 219.111 16.8888 217.79" stroke="#498048" stroke-opacity="0.72" stroke-linecap="round" stroke-linejoin="round"/>
<path d="M24.5949 220.909C24.3503 220.022 24.2463 217.918 25.7875 216.597" stroke="#498048" stroke-opacity="0.72" stroke-linecap="round" stroke-linejoin="round"/>
<path d="M27.6223 221C27.8058 219.961 28.0627 217.698 27.6223 216.964" stroke="#498048" stroke-opacity="0.72" stroke-linecap="round" stroke-linejoin="round"/>
<path d="M26.0854 221.482C26.0359 220.344 25.6401 217.771 24.4526 216.583" stroke="#498048" stroke-opacity="0.72" stroke-linecap="round" stroke-linejoin="round"/>
<path d="M27.9766 221.089C27.3241 219.856 26.5163 216.987 28.5048 215.372" stroke="#498048" stroke-opacity="0.72" stroke-linecap="round" stroke-linejoin="round"/>
<path d="M30.7664 220.634C30.0631 220.236 28.7665 219.111 29.2069 217.79" stroke="#498048" stroke-opacity="0.72" stroke-linecap="round" stroke-linejoin="round"/>
<path d="M36.913 220.909C36.6683 220.022 36.5644 217.918 38.1056 216.597" stroke="#498048" stroke-opacity="0.72" stroke-linecap="round" stroke-linejoin="round"/>
<path d="M39.9404 221C40.1239 219.961 40.3807 217.698 39.9404 216.964" stroke="#498048" stroke-opacity="0.72" stroke-linecap="round" stroke-linejoin="round"/>
<path d="M29.4983 220.353C29.4488 219.215 29.053 216.642 27.8655 215.455" stroke="#498048" stroke-opacity="0.72" stroke-linecap="round" stroke-linejoin="round"/>
<path d="M31.3895 219.96C30.737 218.728 29.9292 215.859 31.9176 214.243" stroke="#498048" stroke-opacity="0.72" stroke-linecap="round" stroke-linejoin="round"/>
<path d="M34.1793 219.505C33.476 219.108 32.1794 217.982 32.6197 216.661" stroke="#498048" stroke-opacity="0.72" stroke-linecap="round" stroke-linejoin="round"/>
<path d="M40.3259 219.78C40.0812 218.893 39.9772 216.79 41.5185 215.469" stroke="#498048" stroke-opacity="0.72" stroke-linecap="round" stroke-linejoin="round"/>
<path d="M43.3533 219.872C43.5367 218.832 43.7936 216.569 43.3533 215.835" stroke="#498048" stroke-opacity="0.72" stroke-linecap="round" stroke-linejoin="round"/>
<path d="M16.5623 221.685C16.5129 220.547 16.117 217.974 14.9295 216.787" stroke="#498048" stroke-opacity="0.72" stroke-linecap="round" stroke-linejoin="round"/>
<path d="M18.4535 221.292C17.8011 220.06 16.9932 217.191 18.9817 215.575" stroke="#498048" stroke-opacity="0.72" stroke-linecap="round" stroke-linejoin="round"/>
<path d="M21.2434 220.837C20.54 220.439 19.2435 219.314 19.6838 217.993" stroke="#498048" stroke-opacity="0.72" stroke-linecap="round" stroke-linejoin="round"/>
<path d="M27.3899 221.112C27.1453 220.225 27.0413 218.121 28.5825 216.8" stroke="#498048" stroke-opacity="0.72" stroke-linecap="round" stroke-linejoin="round"/>
<path d="M30.4173 221.204C30.6008 220.164 30.8577 217.901 30.4173 217.167" stroke="#498048" stroke-opacity="0.72" stroke-linecap="round" stroke-linejoin="round"/>
<path d="M24.0075 224.259C23.958 223.121 23.5621 220.548 22.3747 219.36" stroke="#498048" stroke-opacity="0.72" stroke-linecap="round" stroke-linejoin="round"/>
<path d="M25.8986 223.866C25.2462 222.634 24.4384 219.765 26.4268 218.149" stroke="#498048" stroke-opacity="0.72" stroke-linecap="round" stroke-linejoin="round"/>
<path d="M28.6885 223.411C27.9852 223.013 26.6886 221.888 27.1289 220.567" stroke="#498048" stroke-opacity="0.72" stroke-linecap="round" stroke-linejoin="round"/>
<path d="M34.835 223.686C34.5904 222.799 34.4864 220.695 36.0277 219.374" stroke="#498048" stroke-opacity="0.72" stroke-linecap="round" stroke-linejoin="round"/>
<path d="M37.8624 223.778C38.0459 222.738 38.3028 220.475 37.8624 219.741" stroke="#498048" stroke-opacity="0.72" stroke-linecap="round" stroke-linejoin="round"/>
<path d="M163.049 221.239C162.999 220.101 162.604 217.528 161.416 216.34" stroke="#498048" stroke-opacity="0.72" stroke-linecap="round" stroke-linejoin="round"/>
<path d="M164.94 220.846C164.288 219.613 163.48 216.744 165.468 215.129" stroke="#498048" stroke-opacity="0.72" stroke-linecap="round" stroke-linejoin="round"/>
<path d="M167.73 220.391C167.027 219.993 165.73 218.868 166.17 217.547" stroke="#498048" stroke-opacity="0.72" stroke-linecap="round" stroke-linejoin="round"/>
<path d="M173.876 220.666C173.632 219.779 173.528 217.675 175.069 216.354" stroke="#498048" stroke-opacity="0.72" stroke-linecap="round" stroke-linejoin="round"/>
<path d="M176.904 220.758C177.087 219.718 177.344 217.455 176.904 216.721" stroke="#498048" stroke-opacity="0.72" stroke-linecap="round" stroke-linejoin="round"/>
<path d="M163.688 224.415C163.639 223.277 163.243 220.705 162.055 219.517" stroke="#498048" stroke-opacity="0.72" stroke-linecap="round" stroke-linejoin="round"/>
<path d="M165.579 224.023C164.927 222.79 164.119 219.921 166.107 218.306" stroke="#498048" stroke-opacity="0.72" stroke-linecap="round" stroke-linejoin="round"/>
<path d="M168.369 223.568C167.666 223.17 166.369 222.045 166.81 220.724" stroke="#498048" stroke-opacity="0.72" stroke-linecap="round" stroke-linejoin="round"/>
<path d="M174.516 223.843C174.271 222.956 174.167 220.852 175.708 219.531" stroke="#498048" stroke-opacity="0.72" stroke-linecap="round" stroke-linejoin="round"/>
<path d="M177.543 223.934C177.727 222.895 177.983 220.632 177.543 219.898" stroke="#498048" stroke-opacity="0.72" stroke-linecap="round" stroke-linejoin="round"/>
<path d="M175.367 223.148C175.317 222.01 174.922 219.437 173.734 218.249" stroke="#498048" stroke-opacity="0.72" stroke-linecap="round" stroke-linejoin="round"/>
<path d="M177.258 222.755C176.606 221.522 175.798 218.654 177.786 217.038" stroke="#498048" stroke-opacity="0.72" stroke-linecap="round" stroke-linejoin="round"/>
<path d="M180.048 222.3C179.345 221.902 178.048 220.777 178.488 219.456" stroke="#498048" stroke-opacity="0.72" stroke-linecap="round" stroke-linejoin="round"/>
<path d="M186.194 222.575C185.95 221.688 185.846 219.584 187.387 218.263" stroke="#498048" stroke-opacity="0.72" stroke-linecap="round" stroke-linejoin="round"/>
<path d="M189.222 222.667C189.405 221.627 189.662 219.364 189.222 218.63" stroke="#498048" stroke-opacity="0.72" stroke-linecap="round" stroke-linejoin="round"/>
<path d="M194.268 220.273C194.218 219.135 193.822 216.562 192.635 215.374" stroke="#498048" stroke-opacity="0.72" stroke-linecap="round" stroke-linejoin="round"/>
<path d="M196.159 219.88C195.506 218.647 194.698 215.779 196.687 214.163" stroke="#498048" stroke-opacity="0.72" stroke-linecap="round" stroke-linejoin="round"/>
<path d="M198.949 219.425C198.245 219.027 196.949 217.902 197.389 216.581" stroke="#498048" stroke-opacity="0.72" stroke-linecap="round" stroke-linejoin="round"/>
<path d="M205.095 219.7C204.85 218.813 204.747 216.709 206.288 215.388" stroke="#498048" stroke-opacity="0.72" stroke-linecap="round" stroke-linejoin="round"/>
<path d="M208.123 219.792C208.306 218.752 208.563 216.489 208.123 215.755" stroke="#498048" stroke-opacity="0.72" stroke-linecap="round" stroke-linejoin="round"/>
<path d="M178.78 221.794C178.73 220.656 178.334 218.083 177.147 216.896" stroke="#498048" stroke-opacity="0.72" stroke-linecap="round" stroke-linejoin="round"/>
<path d="M180.671 221.401C180.018 220.169 179.211 217.3 181.199 215.684" stroke="#498048" stroke-opacity="0.72" stroke-linecap="round" stroke-linejoin="round"/>
<path d="M183.461 220.946C182.757 220.549 181.461 219.423 181.901 218.102" stroke="#498048" stroke-opacity="0.72" stroke-linecap="round" stroke-linejoin="round"/>
<path d="M189.607 221.221C189.363 220.334 189.259 218.231 190.8 216.91" stroke="#498048" stroke-opacity="0.72" stroke-linecap="round" stroke-linejoin="round"/>
<path d="M192.635 221.313C192.818 220.273 193.075 218.01 192.635 217.276" stroke="#498048" stroke-opacity="0.72" stroke-linecap="round" stroke-linejoin="round"/>
<path d="M191.098 221.794C191.048 220.656 190.652 218.083 189.465 216.896" stroke="#498048" stroke-opacity="0.72" stroke-linecap="round" stroke-linejoin="round"/>
<path d="M192.989 221.401C192.337 220.169 191.529 217.3 193.517 215.684" stroke="#498048" stroke-opacity="0.72" stroke-linecap="round" stroke-linejoin="round"/>
<path d="M195.779 220.946C195.076 220.549 193.779 219.423 194.219 218.102" stroke="#498048" stroke-opacity="0.72" stroke-linecap="round" stroke-linejoin="round"/>
<path d="M201.925 221.221C201.681 220.334 201.577 218.231 203.118 216.91" stroke="#498048" stroke-opacity="0.72" stroke-linecap="round" stroke-linejoin="round"/>
<path d="M204.953 221.313C205.136 220.273 205.393 218.01 204.953 217.276" stroke="#498048" stroke-opacity="0.72" stroke-linecap="round" stroke-linejoin="round"/>
<path d="M194.511 220.666C194.461 219.528 194.065 216.955 192.878 215.767" stroke="#498048" stroke-opacity="0.72" stroke-linecap="round" stroke-linejoin="round"/>
<path d="M196.402 220.273C195.749 219.04 194.942 216.172 196.93 214.556" stroke="#498048" stroke-opacity="0.72" stroke-linecap="round" stroke-linejoin="round"/>
<path d="M199.192 219.818C198.488 219.42 197.192 218.295 197.632 216.974" stroke="#498048" stroke-opacity="0.72" stroke-linecap="round" stroke-linejoin="round"/>
<path d="M205.338 220.093C205.094 219.206 204.99 217.102 206.531 215.781" stroke="#498048" stroke-opacity="0.72" stroke-linecap="round" stroke-linejoin="round"/>
<path d="M208.366 220.185C208.549 219.145 208.806 216.882 208.366 216.148" stroke="#498048" stroke-opacity="0.72" stroke-linecap="round" stroke-linejoin="round"/>
<path d="M181.575 221.998C181.525 220.86 181.129 218.287 179.942 217.099" stroke="#498048" stroke-opacity="0.72" stroke-linecap="round" stroke-linejoin="round"/>
<path d="M183.466 221.605C182.813 220.372 182.006 217.503 183.994 215.888" stroke="#498048" stroke-opacity="0.72" stroke-linecap="round" stroke-linejoin="round"/>
<path d="M186.256 221.15C185.552 220.752 184.256 219.627 184.696 218.306" stroke="#498048" stroke-opacity="0.72" stroke-linecap="round" stroke-linejoin="round"/>
<path d="M192.402 221.425C192.158 220.538 192.054 218.434 193.595 217.113" stroke="#498048" stroke-opacity="0.72" stroke-linecap="round" stroke-linejoin="round"/>
<path d="M195.43 221.517C195.613 220.477 195.87 218.214 195.43 217.48" stroke="#498048" stroke-opacity="0.72" stroke-linecap="round" stroke-linejoin="round"/>
<path d="M189.02 224.571C188.97 223.433 188.575 220.861 187.387 219.673" stroke="#498048" stroke-opacity="0.72" stroke-linecap="round" stroke-linejoin="round"/>
<path d="M190.911 224.179C190.259 222.946 189.451 220.077 191.439 218.462" stroke="#498048" stroke-opacity="0.72" stroke-linecap="round" stroke-linejoin="round"/>
<path d="M193.701 223.724C192.998 223.326 191.701 222.201 192.141 220.88" stroke="#498048" stroke-opacity="0.72" stroke-linecap="round" stroke-linejoin="round"/>
<path d="M199.847 223.999C199.603 223.112 199.499 221.008 201.04 219.687" stroke="#498048" stroke-opacity="0.72" stroke-linecap="round" stroke-linejoin="round"/>
<path d="M202.875 224.09C203.058 223.051 203.315 220.788 202.875 220.054" stroke="#498048" stroke-opacity="0.72" stroke-linecap="round" stroke-linejoin="round"/>
<path d="M69.6748 222.195C69.6253 221.057 69.2295 218.484 68.042 217.297" stroke="#498048" stroke-opacity="0.72" stroke-linecap="round" stroke-linejoin="round"/>
<path d="M71.566 221.802C70.9135 220.57 70.1057 217.701 72.0942 216.086" stroke="#498048" stroke-opacity="0.72" stroke-linecap="round" stroke-linejoin="round"/>
<path d="M74.3558 221.347C73.6525 220.95 72.3559 219.824 72.7963 218.503" stroke="#498048" stroke-opacity="0.72" stroke-linecap="round" stroke-linejoin="round"/>
<path d="M80.5024 221.623C80.2577 220.736 80.1538 218.632 81.695 217.311" stroke="#498048" stroke-opacity="0.72" stroke-linecap="round" stroke-linejoin="round"/>
<path d="M83.5298 221.714C83.7133 220.675 83.9701 218.412 83.5298 217.678" stroke="#498048" stroke-opacity="0.72" stroke-linecap="round" stroke-linejoin="round"/>
<path d="M70.3141 225.372C70.2646 224.234 69.8688 221.661 68.6813 220.474" stroke="#498048" stroke-opacity="0.72" stroke-linecap="round" stroke-linejoin="round"/>
<path d="M72.2053 224.979C71.5528 223.747 70.745 220.878 72.7335 219.262" stroke="#498048" stroke-opacity="0.72" stroke-linecap="round" stroke-linejoin="round"/>
<path d="M74.9951 224.524C74.2918 224.127 72.9952 223.001 73.4356 221.68" stroke="#498048" stroke-opacity="0.72" stroke-linecap="round" stroke-linejoin="round"/>
<path d="M81.1417 224.799C80.897 223.913 80.7931 221.809 82.3343 220.488" stroke="#498048" stroke-opacity="0.72" stroke-linecap="round" stroke-linejoin="round"/>
<path d="M84.1691 224.891C84.3526 223.851 84.6094 221.588 84.1691 220.855" stroke="#498048" stroke-opacity="0.72" stroke-linecap="round" stroke-linejoin="round"/>
<path d="M81.9928 224.105C81.9434 222.967 81.5475 220.394 80.36 219.206" stroke="#498048" stroke-opacity="0.72" stroke-linecap="round" stroke-linejoin="round"/>
<path d="M83.884 223.712C83.2316 222.479 82.4237 219.61 84.4122 217.995" stroke="#498048" stroke-opacity="0.72" stroke-linecap="round" stroke-linejoin="round"/>
<path d="M86.6739 223.257C85.9705 222.859 84.674 221.734 85.1143 220.413" stroke="#498048" stroke-opacity="0.72" stroke-linecap="round" stroke-linejoin="round"/>
<path d="M92.8204 223.532C92.5758 222.645 92.4718 220.541 94.013 219.22" stroke="#498048" stroke-opacity="0.72" stroke-linecap="round" stroke-linejoin="round"/>
<path d="M95.8478 223.624C96.0313 222.584 96.2882 220.321 95.8478 219.587" stroke="#498048" stroke-opacity="0.72" stroke-linecap="round" stroke-linejoin="round"/>
<path d="M100.894 221.23C100.844 220.092 100.448 217.519 99.2607 216.331" stroke="#498048" stroke-opacity="0.72" stroke-linecap="round" stroke-linejoin="round"/>
<path d="M102.785 220.837C102.132 219.604 101.324 216.735 103.313 215.12" stroke="#498048" stroke-opacity="0.72" stroke-linecap="round" stroke-linejoin="round"/>
<path d="M105.575 220.382C104.871 219.984 103.575 218.859 104.015 217.538" stroke="#498048" stroke-opacity="0.72" stroke-linecap="round" stroke-linejoin="round"/>
<path d="M111.721 220.657C111.476 219.77 111.372 217.666 112.914 216.345" stroke="#498048" stroke-opacity="0.72" stroke-linecap="round" stroke-linejoin="round"/>
<path d="M114.749 220.749C114.932 219.709 115.189 217.446 114.749 216.712" stroke="#498048" stroke-opacity="0.72" stroke-linecap="round" stroke-linejoin="round"/>
<path d="M85.4057 222.751C85.3562 221.613 84.9604 219.04 83.7729 217.853" stroke="#498048" stroke-opacity="0.72" stroke-linecap="round" stroke-linejoin="round"/>
<path d="M87.2969 222.358C86.6444 221.126 85.8366 218.257 87.8251 216.641" stroke="#498048" stroke-opacity="0.72" stroke-linecap="round" stroke-linejoin="round"/>
<path d="M90.0868 221.903C89.3834 221.505 88.0868 220.38 88.5272 219.059" stroke="#498048" stroke-opacity="0.72" stroke-linecap="round" stroke-linejoin="round"/>
<path d="M96.2333 222.178C95.9887 221.291 95.8847 219.187 97.4259 217.866" stroke="#498048" stroke-opacity="0.72" stroke-linecap="round" stroke-linejoin="round"/>
<path d="M99.2607 222.27C99.4442 221.23 99.7011 218.967 99.2607 218.233" stroke="#498048" stroke-opacity="0.72" stroke-linecap="round" stroke-linejoin="round"/>
<path d="M97.7238 222.751C97.6743 221.613 97.2785 219.04 96.091 217.853" stroke="#498048" stroke-opacity="0.72" stroke-linecap="round" stroke-linejoin="round"/>
<path d="M99.615 222.358C98.9625 221.126 98.1547 218.257 100.143 216.641" stroke="#498048" stroke-opacity="0.72" stroke-linecap="round" stroke-linejoin="round"/>
<path d="M102.405 221.903C101.701 221.505 100.405 220.38 100.845 219.059" stroke="#498048" stroke-opacity="0.72" stroke-linecap="round" stroke-linejoin="round"/>
<path d="M108.551 222.178C108.307 221.291 108.203 219.187 109.744 217.866" stroke="#498048" stroke-opacity="0.72" stroke-linecap="round" stroke-linejoin="round"/>
<path d="M111.579 222.27C111.762 221.23 112.019 218.967 111.579 218.233" stroke="#498048" stroke-opacity="0.72" stroke-linecap="round" stroke-linejoin="round"/>
<path d="M101.137 221.623C101.087 220.485 100.691 217.912 99.5038 216.724" stroke="#498048" stroke-opacity="0.72" stroke-linecap="round" stroke-linejoin="round"/>
<path d="M103.028 221.23C102.375 219.997 101.568 217.128 103.556 215.513" stroke="#498048" stroke-opacity="0.72" stroke-linecap="round" stroke-linejoin="round"/>
<path d="M105.818 220.775C105.114 220.377 103.818 219.252 104.258 217.931" stroke="#498048" stroke-opacity="0.72" stroke-linecap="round" stroke-linejoin="round"/>
<path d="M111.964 221.05C111.72 220.163 111.616 218.059 113.157 216.738" stroke="#498048" stroke-opacity="0.72" stroke-linecap="round" stroke-linejoin="round"/>
<path d="M114.992 221.141C115.175 220.102 115.432 217.839 114.992 217.105" stroke="#498048" stroke-opacity="0.72" stroke-linecap="round" stroke-linejoin="round"/>
<path d="M88.2007 222.954C88.1512 221.816 87.7554 219.244 86.5679 218.056" stroke="#498048" stroke-opacity="0.72" stroke-linecap="round" stroke-linejoin="round"/>
<path d="M90.0919 222.562C89.4394 221.329 88.6316 218.46 90.6201 216.845" stroke="#498048" stroke-opacity="0.72" stroke-linecap="round" stroke-linejoin="round"/>
<path d="M92.8818 222.106C92.1784 221.709 90.8818 220.583 91.3222 219.262" stroke="#498048" stroke-opacity="0.72" stroke-linecap="round" stroke-linejoin="round"/>
<path d="M99.0283 222.382C98.7837 221.495 98.6797 219.391 100.221 218.07" stroke="#498048" stroke-opacity="0.72" stroke-linecap="round" stroke-linejoin="round"/>
<path d="M102.056 222.473C102.239 221.434 102.496 219.171 102.056 218.437" stroke="#498048" stroke-opacity="0.72" stroke-linecap="round" stroke-linejoin="round"/>
<path d="M95.6458 225.528C95.5964 224.39 95.2005 221.817 94.013 220.63" stroke="#498048" stroke-opacity="0.72" stroke-linecap="round" stroke-linejoin="round"/>
<path d="M97.537 225.135C96.8846 223.903 96.0767 221.034 98.0652 219.418" stroke="#498048" stroke-opacity="0.72" stroke-linecap="round" stroke-linejoin="round"/>
<path d="M100.327 224.68C99.6236 224.283 98.327 223.157 98.7673 221.836" stroke="#498048" stroke-opacity="0.72" stroke-linecap="round" stroke-linejoin="round"/>
<path d="M106.473 224.955C106.229 224.069 106.125 221.965 107.666 220.644" stroke="#498048" stroke-opacity="0.72" stroke-linecap="round" stroke-linejoin="round"/>
<path d="M109.501 225.047C109.684 224.007 109.941 221.744 109.501 221.011" stroke="#498048" stroke-opacity="0.72" stroke-linecap="round" stroke-linejoin="round"/>
<path d="M44.5424 220.926C44.4929 219.788 44.0971 217.215 42.9096 216.028" stroke="#498048" stroke-opacity="0.72" stroke-linecap="round" stroke-linejoin="round"/>
<path d="M46.4336 220.533C45.7811 219.301 44.9733 216.432 46.9618 214.816" stroke="#498048" stroke-opacity="0.72" stroke-linecap="round" stroke-linejoin="round"/>
<path d="M49.2234 220.078C48.5201 219.68 47.2235 218.555 47.6639 217.234" stroke="#498048" stroke-opacity="0.72" stroke-linecap="round" stroke-linejoin="round"/>
<path d="M55.37 220.353C55.1253 219.466 55.0214 217.362 56.5626 216.041" stroke="#498048" stroke-opacity="0.72" stroke-linecap="round" stroke-linejoin="round"/>
<path d="M58.3974 220.445C58.5809 219.405 58.8377 217.142 58.3974 216.408" stroke="#498048" stroke-opacity="0.72" stroke-linecap="round" stroke-linejoin="round"/>
<path d="M45.1817 224.103C45.1322 222.965 44.7364 220.392 43.5489 219.204" stroke="#498048" stroke-opacity="0.72" stroke-linecap="round" stroke-linejoin="round"/>
<path d="M47.0729 223.71C46.4204 222.478 45.6126 219.609 47.6011 217.993" stroke="#498048" stroke-opacity="0.72" stroke-linecap="round" stroke-linejoin="round"/>
<path d="M49.8627 223.255C49.1594 222.857 47.8628 221.732 48.3032 220.411" stroke="#498048" stroke-opacity="0.72" stroke-linecap="round" stroke-linejoin="round"/>
<path d="M56.0093 223.53C55.7646 222.643 55.6607 220.539 57.2019 219.218" stroke="#498048" stroke-opacity="0.72" stroke-linecap="round" stroke-linejoin="round"/>
<path d="M59.0367 223.622C59.2202 222.582 59.477 220.319 59.0367 219.585" stroke="#498048" stroke-opacity="0.72" stroke-linecap="round" stroke-linejoin="round"/>
<path d="M56.8604 222.835C56.811 221.697 56.4151 219.124 55.2276 217.937" stroke="#498048" stroke-opacity="0.72" stroke-linecap="round" stroke-linejoin="round"/>
<path d="M58.7516 222.442C58.0992 221.21 57.2913 218.341 59.2798 216.725" stroke="#498048" stroke-opacity="0.72" stroke-linecap="round" stroke-linejoin="round"/>
<path d="M61.5415 221.987C60.8381 221.59 59.5416 220.464 59.9819 219.143" stroke="#498048" stroke-opacity="0.72" stroke-linecap="round" stroke-linejoin="round"/>
<path d="M67.688 222.262C67.4434 221.375 67.3394 219.272 68.8806 217.951" stroke="#498048" stroke-opacity="0.72" stroke-linecap="round" stroke-linejoin="round"/>
<path d="M70.7154 222.354C70.8989 221.314 71.1558 219.051 70.7154 218.318" stroke="#498048" stroke-opacity="0.72" stroke-linecap="round" stroke-linejoin="round"/>
<path d="M75.7611 219.96C75.7116 218.822 75.3158 216.249 74.1283 215.062" stroke="#498048" stroke-opacity="0.72" stroke-linecap="round" stroke-linejoin="round"/>
<path d="M77.6523 219.567C76.9998 218.335 76.192 215.466 78.1805 213.85" stroke="#498048" stroke-opacity="0.72" stroke-linecap="round" stroke-linejoin="round"/>
<path d="M80.4422 219.112C79.7388 218.715 78.4422 217.589 78.8826 216.268" stroke="#498048" stroke-opacity="0.72" stroke-linecap="round" stroke-linejoin="round"/>
<path d="M86.5887 219.387C86.3441 218.5 86.2401 216.397 87.7813 215.076" stroke="#498048" stroke-opacity="0.72" stroke-linecap="round" stroke-linejoin="round"/>
<path d="M89.6161 219.479C89.7996 218.439 90.0565 216.176 89.6161 215.443" stroke="#498048" stroke-opacity="0.72" stroke-linecap="round" stroke-linejoin="round"/>
<path d="M60.2733 221.482C60.2238 220.344 59.828 217.771 58.6405 216.583" stroke="#498048" stroke-opacity="0.72" stroke-linecap="round" stroke-linejoin="round"/>
<path d="M62.1645 221.089C61.512 219.856 60.7042 216.987 62.6927 215.372" stroke="#498048" stroke-opacity="0.72" stroke-linecap="round" stroke-linejoin="round"/>
<path d="M64.9544 220.634C64.251 220.236 62.9544 219.111 63.3948 217.79" stroke="#498048" stroke-opacity="0.72" stroke-linecap="round" stroke-linejoin="round"/>
<path d="M71.1009 220.909C70.8563 220.022 70.7523 217.918 72.2935 216.597" stroke="#498048" stroke-opacity="0.72" stroke-linecap="round" stroke-linejoin="round"/>
<path d="M74.1283 221C74.3118 219.961 74.5687 217.698 74.1283 216.964" stroke="#498048" stroke-opacity="0.72" stroke-linecap="round" stroke-linejoin="round"/>
<path d="M72.5914 221.482C72.5419 220.344 72.1461 217.771 70.9586 216.583" stroke="#498048" stroke-opacity="0.72" stroke-linecap="round" stroke-linejoin="round"/>
<path d="M74.4826 221.089C73.8301 219.856 73.0223 216.987 75.0107 215.372" stroke="#498048" stroke-opacity="0.72" stroke-linecap="round" stroke-linejoin="round"/>
<path d="M77.2724 220.634C76.5691 220.236 75.2725 219.111 75.7128 217.79" stroke="#498048" stroke-opacity="0.72" stroke-linecap="round" stroke-linejoin="round"/>
<path d="M83.419 220.909C83.1743 220.022 83.0703 217.918 84.6116 216.597" stroke="#498048" stroke-opacity="0.72" stroke-linecap="round" stroke-linejoin="round"/>
<path d="M86.4464 221C86.6298 219.961 86.8867 217.698 86.4464 216.964" stroke="#498048" stroke-opacity="0.72" stroke-linecap="round" stroke-linejoin="round"/>
<path d="M76.0042 220.353C75.9548 219.215 75.5589 216.642 74.3714 215.455" stroke="#498048" stroke-opacity="0.72" stroke-linecap="round" stroke-linejoin="round"/>
<path d="M77.8954 219.96C77.243 218.728 76.4351 215.859 78.4236 214.243" stroke="#498048" stroke-opacity="0.72" stroke-linecap="round" stroke-linejoin="round"/>
<path d="M80.6853 219.505C79.982 219.108 78.6854 217.982 79.1257 216.661" stroke="#498048" stroke-opacity="0.72" stroke-linecap="round" stroke-linejoin="round"/>
<path d="M86.8318 219.78C86.5872 218.893 86.4832 216.79 88.0245 215.469" stroke="#498048" stroke-opacity="0.72" stroke-linecap="round" stroke-linejoin="round"/>
<path d="M89.8592 219.872C90.0427 218.832 90.2996 216.569 89.8592 215.835" stroke="#498048" stroke-opacity="0.72" stroke-linecap="round" stroke-linejoin="round"/>
<path d="M63.0683 221.685C63.0188 220.547 62.623 217.974 61.4355 216.787" stroke="#498048" stroke-opacity="0.72" stroke-linecap="round" stroke-linejoin="round"/>
<path d="M64.9595 221.292C64.307 220.06 63.4992 217.191 65.4877 215.575" stroke="#498048" stroke-opacity="0.72" stroke-linecap="round" stroke-linejoin="round"/>
<path d="M67.7494 220.837C67.046 220.439 65.7494 219.314 66.1898 217.993" stroke="#498048" stroke-opacity="0.72" stroke-linecap="round" stroke-linejoin="round"/>
<path d="M73.8959 221.112C73.6513 220.225 73.5473 218.121 75.0885 216.8" stroke="#498048" stroke-opacity="0.72" stroke-linecap="round" stroke-linejoin="round"/>
<path d="M76.9233 221.204C77.1068 220.164 77.3637 217.901 76.9233 217.167" stroke="#498048" stroke-opacity="0.72" stroke-linecap="round" stroke-linejoin="round"/>
<path d="M70.5134 224.259C70.464 223.121 70.0681 220.548 68.8806 219.36" stroke="#498048" stroke-opacity="0.72" stroke-linecap="round" stroke-linejoin="round"/>
<path d="M72.4046 223.866C71.7522 222.634 70.9443 219.765 72.9328 218.149" stroke="#498048" stroke-opacity="0.72" stroke-linecap="round" stroke-linejoin="round"/>
<path d="M75.1945 223.411C74.4911 223.013 73.1946 221.888 73.6349 220.567" stroke="#498048" stroke-opacity="0.72" stroke-linecap="round" stroke-linejoin="round"/>
<path d="M81.341 223.686C81.0964 222.799 80.9924 220.695 82.5336 219.374" stroke="#498048" stroke-opacity="0.72" stroke-linecap="round" stroke-linejoin="round"/>
<path d="M84.3684 223.778C84.5519 222.738 84.8088 220.475 84.3684 219.741" stroke="#498048" stroke-opacity="0.72" stroke-linecap="round" stroke-linejoin="round"/>
<path d="M108.817 219.971C108.767 218.833 108.372 216.26 107.184 215.073" stroke="#498048" stroke-opacity="0.72" stroke-linecap="round" stroke-linejoin="round"/>
<path d="M110.708 219.578C110.056 218.346 109.248 215.477 111.236 213.861" stroke="#498048" stroke-opacity="0.72" stroke-linecap="round" stroke-linejoin="round"/>
<path d="M113.498 219.123C112.795 218.725 111.498 217.6 111.938 216.279" stroke="#498048" stroke-opacity="0.72" stroke-linecap="round" stroke-linejoin="round"/>
<path d="M119.645 219.398C119.4 218.511 119.296 216.407 120.837 215.086" stroke="#498048" stroke-opacity="0.72" stroke-linecap="round" stroke-linejoin="round"/>
<path d="M122.672 219.49C122.855 218.45 123.112 216.187 122.672 215.453" stroke="#498048" stroke-opacity="0.72" stroke-linecap="round" stroke-linejoin="round"/>
<path d="M109.456 223.148C109.407 222.01 109.011 219.437 107.823 218.249" stroke="#498048" stroke-opacity="0.72" stroke-linecap="round" stroke-linejoin="round"/>
<path d="M111.347 222.755C110.695 221.522 109.887 218.654 111.876 217.038" stroke="#498048" stroke-opacity="0.72" stroke-linecap="round" stroke-linejoin="round"/>
<path d="M114.137 222.3C113.434 221.902 112.137 220.777 112.578 219.456" stroke="#498048" stroke-opacity="0.72" stroke-linecap="round" stroke-linejoin="round"/>
<path d="M120.284 222.575C120.039 221.688 119.935 219.584 121.476 218.263" stroke="#498048" stroke-opacity="0.72" stroke-linecap="round" stroke-linejoin="round"/>
<path d="M123.311 222.667C123.495 221.627 123.752 219.364 123.311 218.63" stroke="#498048" stroke-opacity="0.72" stroke-linecap="round" stroke-linejoin="round"/>
<path d="M121.135 221.88C121.086 220.742 120.69 218.169 119.502 216.982" stroke="#498048" stroke-opacity="0.72" stroke-linecap="round" stroke-linejoin="round"/>
<path d="M123.026 221.487C122.374 220.255 121.566 217.386 123.554 215.77" stroke="#498048" stroke-opacity="0.72" stroke-linecap="round" stroke-linejoin="round"/>
<path d="M125.816 221.032C125.113 220.635 123.816 219.509 124.256 218.188" stroke="#498048" stroke-opacity="0.72" stroke-linecap="round" stroke-linejoin="round"/>
<path d="M131.963 221.307C131.718 220.42 131.614 218.317 133.155 216.995" stroke="#498048" stroke-opacity="0.72" stroke-linecap="round" stroke-linejoin="round"/>
<path d="M134.99 221.399C135.173 220.359 135.43 218.096 134.99 217.362" stroke="#498048" stroke-opacity="0.72" stroke-linecap="round" stroke-linejoin="round"/>
<path d="M140.036 219.005C139.986 217.867 139.59 215.294 138.403 214.107" stroke="#498048" stroke-opacity="0.72" stroke-linecap="round" stroke-linejoin="round"/>
<path d="M141.927 218.612C141.274 217.38 140.467 214.511 142.455 212.895" stroke="#498048" stroke-opacity="0.72" stroke-linecap="round" stroke-linejoin="round"/>
<path d="M144.717 218.157C144.013 217.76 142.717 216.634 143.157 215.313" stroke="#498048" stroke-opacity="0.72" stroke-linecap="round" stroke-linejoin="round"/>
<path d="M150.863 218.432C150.619 217.545 150.515 215.442 152.056 214.12" stroke="#498048" stroke-opacity="0.72" stroke-linecap="round" stroke-linejoin="round"/>
<path d="M153.891 218.524C154.074 217.484 154.331 215.221 153.891 214.487" stroke="#498048" stroke-opacity="0.72" stroke-linecap="round" stroke-linejoin="round"/>
<path d="M124.548 220.526C124.498 219.388 124.103 216.816 122.915 215.628" stroke="#498048" stroke-opacity="0.72" stroke-linecap="round" stroke-linejoin="round"/>
<path d="M126.439 220.134C125.787 218.901 124.979 216.032 126.967 214.417" stroke="#498048" stroke-opacity="0.72" stroke-linecap="round" stroke-linejoin="round"/>
<path d="M129.229 219.678C128.526 219.281 127.229 218.156 127.669 216.834" stroke="#498048" stroke-opacity="0.72" stroke-linecap="round" stroke-linejoin="round"/>
<path d="M135.375 219.954C135.131 219.067 135.027 216.963 136.568 215.642" stroke="#498048" stroke-opacity="0.72" stroke-linecap="round" stroke-linejoin="round"/>
<path d="M138.403 220.045C138.586 219.006 138.843 216.743 138.403 216.009" stroke="#498048" stroke-opacity="0.72" stroke-linecap="round" stroke-linejoin="round"/>
<path d="M136.866 220.526C136.816 219.388 136.421 216.816 135.233 215.628" stroke="#498048" stroke-opacity="0.72" stroke-linecap="round" stroke-linejoin="round"/>
<path d="M138.757 220.134C138.105 218.901 137.297 216.032 139.285 214.417" stroke="#498048" stroke-opacity="0.72" stroke-linecap="round" stroke-linejoin="round"/>
<path d="M141.547 219.678C140.844 219.281 139.547 218.156 139.987 216.834" stroke="#498048" stroke-opacity="0.72" stroke-linecap="round" stroke-linejoin="round"/>
<path d="M147.694 219.954C147.449 219.067 147.345 216.963 148.886 215.642" stroke="#498048" stroke-opacity="0.72" stroke-linecap="round" stroke-linejoin="round"/>
<path d="M150.721 220.045C150.904 219.006 151.161 216.743 150.721 216.009" stroke="#498048" stroke-opacity="0.72" stroke-linecap="round" stroke-linejoin="round"/>
<path d="M140.279 219.398C140.229 218.26 139.834 215.687 138.646 214.5" stroke="#498048" stroke-opacity="0.72" stroke-linecap="round" stroke-linejoin="round"/>
<path d="M142.17 219.005C141.518 217.773 140.71 214.904 142.698 213.288" stroke="#498048" stroke-opacity="0.72" stroke-linecap="round" stroke-linejoin="round"/>
<path d="M144.96 218.55C144.257 218.152 142.96 217.027 143.4 215.706" stroke="#498048" stroke-opacity="0.72" stroke-linecap="round" stroke-linejoin="round"/>
<path d="M151.106 218.825C150.862 217.938 150.758 215.834 152.299 214.513" stroke="#498048" stroke-opacity="0.72" stroke-linecap="round" stroke-linejoin="round"/>
<path d="M154.134 218.917C154.317 217.877 154.574 215.614 154.134 214.88" stroke="#498048" stroke-opacity="0.72" stroke-linecap="round" stroke-linejoin="round"/>
<path d="M127.343 220.73C127.293 219.592 126.898 217.019 125.71 215.832" stroke="#498048" stroke-opacity="0.72" stroke-linecap="round" stroke-linejoin="round"/>
<path d="M129.234 220.337C128.582 219.105 127.774 216.236 129.762 214.62" stroke="#498048" stroke-opacity="0.72" stroke-linecap="round" stroke-linejoin="round"/>
<path d="M132.024 219.882C131.321 219.484 130.024 218.359 130.464 217.038" stroke="#498048" stroke-opacity="0.72" stroke-linecap="round" stroke-linejoin="round"/>
<path d="M138.17 220.157C137.926 219.27 137.822 217.166 139.363 215.845" stroke="#498048" stroke-opacity="0.72" stroke-linecap="round" stroke-linejoin="round"/>
<path d="M141.198 220.249C141.381 219.209 141.638 216.946 141.198 216.212" stroke="#498048" stroke-opacity="0.72" stroke-linecap="round" stroke-linejoin="round"/>
<path d="M134.788 223.304C134.739 222.166 134.343 219.593 133.155 218.405" stroke="#498048" stroke-opacity="0.72" stroke-linecap="round" stroke-linejoin="round"/>
<path d="M136.679 222.911C136.027 221.678 135.219 218.81 137.207 217.194" stroke="#498048" stroke-opacity="0.72" stroke-linecap="round" stroke-linejoin="round"/>
<path d="M139.469 222.456C138.766 222.058 137.469 220.933 137.909 219.612" stroke="#498048" stroke-opacity="0.72" stroke-linecap="round" stroke-linejoin="round"/>
<path d="M145.616 222.731C145.371 221.844 145.267 219.74 146.808 218.419" stroke="#498048" stroke-opacity="0.72" stroke-linecap="round" stroke-linejoin="round"/>
<path d="M148.643 222.823C148.826 221.783 149.083 219.52 148.643 218.786" stroke="#498048" stroke-opacity="0.72" stroke-linecap="round" stroke-linejoin="round"/>
<path d="M144.232 221.239C144.183 220.101 143.787 217.528 142.6 216.34" stroke="#498048" stroke-opacity="0.72" stroke-linecap="round" stroke-linejoin="round"/>
<path d="M146.124 220.846C145.471 219.613 144.663 216.744 146.652 215.129" stroke="#498048" stroke-opacity="0.72" stroke-linecap="round" stroke-linejoin="round"/>
<path d="M148.913 220.391C148.21 219.993 146.913 218.868 147.354 217.547" stroke="#498048" stroke-opacity="0.72" stroke-linecap="round" stroke-linejoin="round"/>
<path d="M155.06 220.666C154.815 219.779 154.711 217.675 156.253 216.354" stroke="#498048" stroke-opacity="0.72" stroke-linecap="round" stroke-linejoin="round"/>
<path d="M158.087 220.758C158.271 219.718 158.528 217.455 158.087 216.721" stroke="#498048" stroke-opacity="0.72" stroke-linecap="round" stroke-linejoin="round"/>
<path d="M144.872 224.415C144.822 223.277 144.426 220.705 143.239 219.517" stroke="#498048" stroke-opacity="0.72" stroke-linecap="round" stroke-linejoin="round"/>
<path d="M146.763 224.023C146.11 222.79 145.303 219.921 147.291 218.306" stroke="#498048" stroke-opacity="0.72" stroke-linecap="round" stroke-linejoin="round"/>
<path d="M149.553 223.568C148.849 223.17 147.553 222.045 147.993 220.724" stroke="#498048" stroke-opacity="0.72" stroke-linecap="round" stroke-linejoin="round"/>
<path d="M155.699 223.843C155.455 222.956 155.351 220.852 156.892 219.531" stroke="#498048" stroke-opacity="0.72" stroke-linecap="round" stroke-linejoin="round"/>
<path d="M158.727 223.934C158.91 222.895 159.167 220.632 158.727 219.898" stroke="#498048" stroke-opacity="0.72" stroke-linecap="round" stroke-linejoin="round"/>
<path d="M156.55 223.148C156.501 222.01 156.105 219.437 154.918 218.249" stroke="#498048" stroke-opacity="0.72" stroke-linecap="round" stroke-linejoin="round"/>
<path d="M158.442 222.755C157.789 221.522 156.981 218.654 158.97 217.038" stroke="#498048" stroke-opacity="0.72" stroke-linecap="round" stroke-linejoin="round"/>
<path d="M161.231 222.3C160.528 221.902 159.232 220.777 159.672 219.456" stroke="#498048" stroke-opacity="0.72" stroke-linecap="round" stroke-linejoin="round"/>
<path d="M167.378 222.575C167.133 221.688 167.029 219.584 168.571 218.263" stroke="#498048" stroke-opacity="0.72" stroke-linecap="round" stroke-linejoin="round"/>
<path d="M170.405 222.667C170.589 221.627 170.846 219.364 170.405 218.63" stroke="#498048" stroke-opacity="0.72" stroke-linecap="round" stroke-linejoin="round"/>
<path d="M175.451 220.273C175.402 219.135 175.006 216.562 173.818 215.374" stroke="#498048" stroke-opacity="0.72" stroke-linecap="round" stroke-linejoin="round"/>
<path d="M177.342 219.88C176.69 218.647 175.882 215.779 177.87 214.163" stroke="#498048" stroke-opacity="0.72" stroke-linecap="round" stroke-linejoin="round"/>
<path d="M180.132 219.425C179.429 219.027 178.132 217.902 178.573 216.581" stroke="#498048" stroke-opacity="0.72" stroke-linecap="round" stroke-linejoin="round"/>
<path d="M186.279 219.7C186.034 218.813 185.93 216.709 187.471 215.388" stroke="#498048" stroke-opacity="0.72" stroke-linecap="round" stroke-linejoin="round"/>
<path d="M189.306 219.792C189.49 218.752 189.746 216.489 189.306 215.755" stroke="#498048" stroke-opacity="0.72" stroke-linecap="round" stroke-linejoin="round"/>
<path d="M159.963 221.794C159.914 220.656 159.518 218.083 158.33 216.896" stroke="#498048" stroke-opacity="0.72" stroke-linecap="round" stroke-linejoin="round"/>
<path d="M161.854 221.401C161.202 220.169 160.394 217.3 162.383 215.684" stroke="#498048" stroke-opacity="0.72" stroke-linecap="round" stroke-linejoin="round"/>
<path d="M164.644 220.946C163.941 220.549 162.644 219.423 163.085 218.102" stroke="#498048" stroke-opacity="0.72" stroke-linecap="round" stroke-linejoin="round"/>
<path d="M170.791 221.221C170.546 220.334 170.442 218.231 171.983 216.91" stroke="#498048" stroke-opacity="0.72" stroke-linecap="round" stroke-linejoin="round"/>
<path d="M173.818 221.313C174.002 220.273 174.259 218.01 173.818 217.276" stroke="#498048" stroke-opacity="0.72" stroke-linecap="round" stroke-linejoin="round"/>
<path d="M172.281 221.794C172.232 220.656 171.836 218.083 170.648 216.896" stroke="#498048" stroke-opacity="0.72" stroke-linecap="round" stroke-linejoin="round"/>
<path d="M174.172 221.401C173.52 220.169 172.712 217.3 174.701 215.684" stroke="#498048" stroke-opacity="0.72" stroke-linecap="round" stroke-linejoin="round"/>
<path d="M176.962 220.946C176.259 220.549 174.962 219.423 175.403 218.102" stroke="#498048" stroke-opacity="0.72" stroke-linecap="round" stroke-linejoin="round"/>
<path d="M183.109 221.221C182.864 220.334 182.76 218.231 184.302 216.91" stroke="#498048" stroke-opacity="0.72" stroke-linecap="round" stroke-linejoin="round"/>
<path d="M186.136 221.313C186.32 220.273 186.577 218.01 186.136 217.276" stroke="#498048" stroke-opacity="0.72" stroke-linecap="round" stroke-linejoin="round"/>
<path d="M175.694 220.666C175.645 219.528 175.249 216.955 174.061 215.767" stroke="#498048" stroke-opacity="0.72" stroke-linecap="round" stroke-linejoin="round"/>
<path d="M177.585 220.273C176.933 219.04 176.125 216.172 178.114 214.556" stroke="#498048" stroke-opacity="0.72" stroke-linecap="round" stroke-linejoin="round"/>
<path d="M180.375 219.818C179.672 219.42 178.375 218.295 178.816 216.974" stroke="#498048" stroke-opacity="0.72" stroke-linecap="round" stroke-linejoin="round"/>
<path d="M186.522 220.093C186.277 219.206 186.173 217.102 187.714 215.781" stroke="#498048" stroke-opacity="0.72" stroke-linecap="round" stroke-linejoin="round"/>
<path d="M189.549 220.185C189.733 219.145 189.99 216.882 189.549 216.148" stroke="#498048" stroke-opacity="0.72" stroke-linecap="round" stroke-linejoin="round"/>
<path d="M162.758 221.998C162.709 220.86 162.313 218.287 161.125 217.099" stroke="#498048" stroke-opacity="0.72" stroke-linecap="round" stroke-linejoin="round"/>
<path d="M164.649 221.605C163.997 220.372 163.189 217.503 165.178 215.888" stroke="#498048" stroke-opacity="0.72" stroke-linecap="round" stroke-linejoin="round"/>
<path d="M167.439 221.15C166.736 220.752 165.439 219.627 165.88 218.306" stroke="#498048" stroke-opacity="0.72" stroke-linecap="round" stroke-linejoin="round"/>
<path d="M173.586 221.425C173.341 220.538 173.237 218.434 174.778 217.113" stroke="#498048" stroke-opacity="0.72" stroke-linecap="round" stroke-linejoin="round"/>
<path d="M176.613 221.517C176.797 220.477 177.054 218.214 176.613 217.48" stroke="#498048" stroke-opacity="0.72" stroke-linecap="round" stroke-linejoin="round"/>
<path d="M170.203 224.571C170.154 223.433 169.758 220.861 168.571 219.673" stroke="#498048" stroke-opacity="0.72" stroke-linecap="round" stroke-linejoin="round"/>
<path d="M172.095 224.179C171.442 222.946 170.634 220.077 172.623 218.462" stroke="#498048" stroke-opacity="0.72" stroke-linecap="round" stroke-linejoin="round"/>
<path d="M174.884 223.724C174.181 223.326 172.885 222.201 173.325 220.88" stroke="#498048" stroke-opacity="0.72" stroke-linecap="round" stroke-linejoin="round"/>
<path d="M181.031 223.999C180.786 223.112 180.682 221.008 182.224 219.687" stroke="#498048" stroke-opacity="0.72" stroke-linecap="round" stroke-linejoin="round"/>
<path d="M184.058 224.09C184.242 223.051 184.499 220.788 184.058 220.054" stroke="#498048" stroke-opacity="0.72" stroke-linecap="round" stroke-linejoin="round"/>
<path d="M185.402 221.563C185.352 220.425 184.957 217.852 183.769 216.665" stroke="#498048" stroke-opacity="0.72" stroke-linecap="round" stroke-linejoin="round"/>
<path d="M187.293 221.17C186.641 219.938 185.833 217.069 187.821 215.453" stroke="#498048" stroke-opacity="0.72" stroke-linecap="round" stroke-linejoin="round"/>
<path d="M190.083 220.715C189.38 220.318 188.083 219.192 188.523 217.871" stroke="#498048" stroke-opacity="0.72" stroke-linecap="round" stroke-linejoin="round"/>
<path d="M196.229 220.99C195.985 220.103 195.881 217.999 197.422 216.678" stroke="#498048" stroke-opacity="0.72" stroke-linecap="round" stroke-linejoin="round"/>
<path d="M199.257 221.082C199.44 220.042 199.697 217.779 199.257 217.045" stroke="#498048" stroke-opacity="0.72" stroke-linecap="round" stroke-linejoin="round"/>
<path d="M186.041 224.74C185.992 223.602 185.596 221.029 184.408 219.842" stroke="#498048" stroke-opacity="0.72" stroke-linecap="round" stroke-linejoin="round"/>
<path d="M187.932 224.347C187.28 223.115 186.472 220.246 188.46 218.63" stroke="#498048" stroke-opacity="0.72" stroke-linecap="round" stroke-linejoin="round"/>
<path d="M190.722 223.892C190.019 223.494 188.722 222.369 189.163 221.048" stroke="#498048" stroke-opacity="0.72" stroke-linecap="round" stroke-linejoin="round"/>
<path d="M196.869 224.167C196.624 223.28 196.52 221.176 198.061 219.855" stroke="#498048" stroke-opacity="0.72" stroke-linecap="round" stroke-linejoin="round"/>
<path d="M199.896 224.259C200.08 223.219 200.336 220.956 199.896 220.222" stroke="#498048" stroke-opacity="0.72" stroke-linecap="round" stroke-linejoin="round"/>
<path d="M197.72 223.472C197.67 222.334 197.275 219.761 196.087 218.574" stroke="#498048" stroke-opacity="0.72" stroke-linecap="round" stroke-linejoin="round"/>
<path d="M199.611 223.079C198.959 221.847 198.151 218.978 200.139 217.362" stroke="#498048" stroke-opacity="0.72" stroke-linecap="round" stroke-linejoin="round"/>
<path d="M202.401 222.624C201.698 222.227 200.401 221.101 200.841 219.78" stroke="#498048" stroke-opacity="0.72" stroke-linecap="round" stroke-linejoin="round"/>
<path d="M208.547 222.899C208.303 222.013 208.199 219.909 209.74 218.588" stroke="#498048" stroke-opacity="0.72" stroke-linecap="round" stroke-linejoin="round"/>
<path d="M211.575 222.991C211.758 221.951 212.015 219.688 211.575 218.955" stroke="#498048" stroke-opacity="0.72" stroke-linecap="round" stroke-linejoin="round"/>
<path d="M216.621 220.597C216.571 219.459 216.175 216.886 214.988 215.699" stroke="#498048" stroke-opacity="0.72" stroke-linecap="round" stroke-linejoin="round"/>
<path d="M218.512 220.204C217.859 218.972 217.051 216.103 219.04 214.487" stroke="#498048" stroke-opacity="0.72" stroke-linecap="round" stroke-linejoin="round"/>
<path d="M221.302 219.749C220.598 219.352 219.302 218.226 219.742 216.905" stroke="#498048" stroke-opacity="0.72" stroke-linecap="round" stroke-linejoin="round"/>
<path d="M227.448 220.024C227.203 219.138 227.1 217.034 228.641 215.713" stroke="#498048" stroke-opacity="0.72" stroke-linecap="round" stroke-linejoin="round"/>
<path d="M230.476 220.116C230.659 219.076 230.916 216.813 230.476 216.08" stroke="#498048" stroke-opacity="0.72" stroke-linecap="round" stroke-linejoin="round"/>
<path d="M201.133 222.119C201.083 220.981 200.687 218.408 199.5 217.22" stroke="#498048" stroke-opacity="0.72" stroke-linecap="round" stroke-linejoin="round"/>
<path d="M203.024 221.726C202.371 220.493 201.564 217.624 203.552 216.009" stroke="#498048" stroke-opacity="0.72" stroke-linecap="round" stroke-linejoin="round"/>
<path d="M205.814 221.271C205.11 220.873 203.814 219.748 204.254 218.427" stroke="#498048" stroke-opacity="0.72" stroke-linecap="round" stroke-linejoin="round"/>
<path d="M211.96 221.546C211.716 220.659 211.612 218.555 213.153 217.234" stroke="#498048" stroke-opacity="0.72" stroke-linecap="round" stroke-linejoin="round"/>
<path d="M214.988 221.638C215.171 220.598 215.428 218.335 214.988 217.601" stroke="#498048" stroke-opacity="0.72" stroke-linecap="round" stroke-linejoin="round"/>
<path d="M213.451 222.119C213.401 220.981 213.005 218.408 211.818 217.22" stroke="#498048" stroke-opacity="0.72" stroke-linecap="round" stroke-linejoin="round"/>
<path d="M215.342 221.726C214.69 220.493 213.882 217.624 215.87 216.009" stroke="#498048" stroke-opacity="0.72" stroke-linecap="round" stroke-linejoin="round"/>
<path d="M218.132 221.271C217.429 220.873 216.132 219.748 216.572 218.427" stroke="#498048" stroke-opacity="0.72" stroke-linecap="round" stroke-linejoin="round"/>
<path d="M224.278 221.546C224.034 220.659 223.93 218.555 225.471 217.234" stroke="#498048" stroke-opacity="0.72" stroke-linecap="round" stroke-linejoin="round"/>
<path d="M227.306 221.638C227.489 220.598 227.746 218.335 227.306 217.601" stroke="#498048" stroke-opacity="0.72" stroke-linecap="round" stroke-linejoin="round"/>
<path d="M216.864 220.99C216.814 219.852 216.418 217.279 215.231 216.092" stroke="#498048" stroke-opacity="0.72" stroke-linecap="round" stroke-linejoin="round"/>
<path d="M218.755 220.597C218.102 219.365 217.295 216.496 219.283 214.88" stroke="#498048" stroke-opacity="0.72" stroke-linecap="round" stroke-linejoin="round"/>
<path d="M221.545 220.142C220.841 219.745 219.545 218.619 219.985 217.298" stroke="#498048" stroke-opacity="0.72" stroke-linecap="round" stroke-linejoin="round"/>
<path d="M227.691 220.417C227.447 219.531 227.343 217.427 228.884 216.106" stroke="#498048" stroke-opacity="0.72" stroke-linecap="round" stroke-linejoin="round"/>
<path d="M230.719 220.509C230.902 219.469 231.159 217.206 230.719 216.473" stroke="#498048" stroke-opacity="0.72" stroke-linecap="round" stroke-linejoin="round"/>
<path d="M203.928 222.322C203.878 221.184 203.482 218.611 202.295 217.424" stroke="#498048" stroke-opacity="0.72" stroke-linecap="round" stroke-linejoin="round"/>
<path d="M205.819 221.929C205.166 220.697 204.359 217.828 206.347 216.212" stroke="#498048" stroke-opacity="0.72" stroke-linecap="round" stroke-linejoin="round"/>
<path d="M208.609 221.474C207.905 221.077 206.609 219.951 207.049 218.63" stroke="#498048" stroke-opacity="0.72" stroke-linecap="round" stroke-linejoin="round"/>
<path d="M214.755 221.749C214.511 220.862 214.407 218.759 215.948 217.438" stroke="#498048" stroke-opacity="0.72" stroke-linecap="round" stroke-linejoin="round"/>
<path d="M217.783 221.841C217.966 220.801 218.223 218.538 217.783 217.804" stroke="#498048" stroke-opacity="0.72" stroke-linecap="round" stroke-linejoin="round"/>
<path d="M211.373 224.896C211.323 223.758 210.928 221.185 209.74 219.998" stroke="#498048" stroke-opacity="0.72" stroke-linecap="round" stroke-linejoin="round"/>
<path d="M213.264 224.503C212.612 223.271 211.804 220.402 213.792 218.786" stroke="#498048" stroke-opacity="0.72" stroke-linecap="round" stroke-linejoin="round"/>
<path d="M216.054 224.048C215.351 223.65 214.054 222.525 214.494 221.204" stroke="#498048" stroke-opacity="0.72" stroke-linecap="round" stroke-linejoin="round"/>
<path d="M222.2 224.323C221.956 223.436 221.852 221.332 223.393 220.011" stroke="#498048" stroke-opacity="0.72" stroke-linecap="round" stroke-linejoin="round"/>
<path d="M225.228 224.415C225.411 223.375 225.668 221.112 225.228 220.378" stroke="#498048" stroke-opacity="0.72" stroke-linecap="round" stroke-linejoin="round"/>
<path d="M201.134 220.611C201.085 219.473 200.689 216.9 199.501 215.712" stroke="#498048" stroke-opacity="0.72" stroke-linecap="round" stroke-linejoin="round"/>
<path d="M203.025 220.218C202.373 218.985 201.565 216.117 203.553 214.501" stroke="#498048" stroke-opacity="0.72" stroke-linecap="round" stroke-linejoin="round"/>
<path d="M205.815 219.763C205.112 219.365 203.815 218.24 204.256 216.919" stroke="#498048" stroke-opacity="0.72" stroke-linecap="round" stroke-linejoin="round"/>
<path d="M211.962 220.038C211.717 219.151 211.613 217.047 213.154 215.726" stroke="#498048" stroke-opacity="0.72" stroke-linecap="round" stroke-linejoin="round"/>
<path d="M214.989 220.13C215.173 219.09 215.429 216.827 214.989 216.093" stroke="#498048" stroke-opacity="0.72" stroke-linecap="round" stroke-linejoin="round"/>
<path d="M201.773 223.788C201.724 222.65 201.328 220.077 200.141 218.889" stroke="#498048" stroke-opacity="0.72" stroke-linecap="round" stroke-linejoin="round"/>
<path d="M203.665 223.395C203.012 222.162 202.204 219.293 204.193 217.678" stroke="#498048" stroke-opacity="0.72" stroke-linecap="round" stroke-linejoin="round"/>
<path d="M206.454 222.94C205.751 222.542 204.455 221.417 204.895 220.096" stroke="#498048" stroke-opacity="0.72" stroke-linecap="round" stroke-linejoin="round"/>
<path d="M212.601 223.215C212.356 222.328 212.252 220.224 213.794 218.903" stroke="#498048" stroke-opacity="0.72" stroke-linecap="round" stroke-linejoin="round"/>
<path d="M215.628 223.307C215.812 222.267 216.069 220.004 215.628 219.27" stroke="#498048" stroke-opacity="0.72" stroke-linecap="round" stroke-linejoin="round"/>
<path d="M213.452 222.52C213.403 221.382 213.007 218.809 211.819 217.621" stroke="#498048" stroke-opacity="0.72" stroke-linecap="round" stroke-linejoin="round"/>
<path d="M215.343 222.127C214.691 220.895 213.883 218.026 215.872 216.41" stroke="#498048" stroke-opacity="0.72" stroke-linecap="round" stroke-linejoin="round"/>
<path d="M218.133 221.672C217.43 221.274 216.133 220.149 216.574 218.828" stroke="#498048" stroke-opacity="0.72" stroke-linecap="round" stroke-linejoin="round"/>
<path d="M224.28 221.947C224.035 221.06 223.931 218.956 225.472 217.635" stroke="#498048" stroke-opacity="0.72" stroke-linecap="round" stroke-linejoin="round"/>
<path d="M227.307 222.039C227.491 220.999 227.748 218.736 227.307 218.002" stroke="#498048" stroke-opacity="0.72" stroke-linecap="round" stroke-linejoin="round"/>
<path d="M232.353 219.645C232.303 218.507 231.908 215.934 230.72 214.746" stroke="#498048" stroke-opacity="0.72" stroke-linecap="round" stroke-linejoin="round"/>
<path d="M234.244 219.252C233.592 218.02 232.784 215.151 234.772 213.535" stroke="#498048" stroke-opacity="0.72" stroke-linecap="round" stroke-linejoin="round"/>
<path d="M237.034 218.797C236.331 218.399 235.034 217.274 235.474 215.953" stroke="#498048" stroke-opacity="0.72" stroke-linecap="round" stroke-linejoin="round"/>
<path d="M243.18 219.072C242.936 218.185 242.832 216.081 244.373 214.76" stroke="#498048" stroke-opacity="0.72" stroke-linecap="round" stroke-linejoin="round"/>
<path d="M246.208 219.164C246.391 218.124 246.648 215.861 246.208 215.127" stroke="#498048" stroke-opacity="0.72" stroke-linecap="round" stroke-linejoin="round"/>
<path d="M216.865 221.166C216.816 220.028 216.42 217.455 215.232 216.268" stroke="#498048" stroke-opacity="0.72" stroke-linecap="round" stroke-linejoin="round"/>
<path d="M218.756 220.773C218.104 219.541 217.296 216.672 219.284 215.056" stroke="#498048" stroke-opacity="0.72" stroke-linecap="round" stroke-linejoin="round"/>
<path d="M221.546 220.318C220.843 219.921 219.546 218.795 219.987 217.474" stroke="#498048" stroke-opacity="0.72" stroke-linecap="round" stroke-linejoin="round"/>
<path d="M227.693 220.593C227.448 219.707 227.344 217.603 228.885 216.282" stroke="#498048" stroke-opacity="0.72" stroke-linecap="round" stroke-linejoin="round"/>
<path d="M230.72 220.685C230.904 219.645 231.16 217.382 230.72 216.649" stroke="#498048" stroke-opacity="0.72" stroke-linecap="round" stroke-linejoin="round"/>
<path d="M229.183 221.166C229.134 220.028 228.738 217.455 227.55 216.268" stroke="#498048" stroke-opacity="0.72" stroke-linecap="round" stroke-linejoin="round"/>
<path d="M231.074 220.773C230.422 219.541 229.614 216.672 231.602 215.056" stroke="#498048" stroke-opacity="0.72" stroke-linecap="round" stroke-linejoin="round"/>
<path d="M233.864 220.318C233.161 219.921 231.864 218.795 232.305 217.474" stroke="#498048" stroke-opacity="0.72" stroke-linecap="round" stroke-linejoin="round"/>
<path d="M240.011 220.593C239.766 219.707 239.662 217.603 241.203 216.282" stroke="#498048" stroke-opacity="0.72" stroke-linecap="round" stroke-linejoin="round"/>
<path d="M243.038 220.685C243.222 219.645 243.478 217.382 243.038 216.649" stroke="#498048" stroke-opacity="0.72" stroke-linecap="round" stroke-linejoin="round"/>
<path d="M232.596 220.038C232.547 218.9 232.151 216.327 230.963 215.139" stroke="#498048" stroke-opacity="0.72" stroke-linecap="round" stroke-linejoin="round"/>
<path d="M234.487 219.645C233.835 218.412 233.027 215.544 235.015 213.928" stroke="#498048" stroke-opacity="0.72" stroke-linecap="round" stroke-linejoin="round"/>
<path d="M237.277 219.19C236.574 218.792 235.277 217.667 235.717 216.346" stroke="#498048" stroke-opacity="0.72" stroke-linecap="round" stroke-linejoin="round"/>
<path d="M243.424 219.465C243.179 218.578 243.075 216.474 244.616 215.153" stroke="#498048" stroke-opacity="0.72" stroke-linecap="round" stroke-linejoin="round"/>
<path d="M246.451 219.557C246.634 218.517 246.891 216.254 246.451 215.52" stroke="#498048" stroke-opacity="0.72" stroke-linecap="round" stroke-linejoin="round"/>
<path d="M219.66 221.37C219.611 220.232 219.215 217.659 218.027 216.471" stroke="#498048" stroke-opacity="0.72" stroke-linecap="round" stroke-linejoin="round"/>
<path d="M221.551 220.977C220.899 219.744 220.091 216.876 222.079 215.26" stroke="#498048" stroke-opacity="0.72" stroke-linecap="round" stroke-linejoin="round"/>
<path d="M224.341 220.522C223.638 220.124 222.341 218.999 222.782 217.678" stroke="#498048" stroke-opacity="0.72" stroke-linecap="round" stroke-linejoin="round"/>
<path d="M230.488 220.797C230.243 219.91 230.139 217.806 231.68 216.485" stroke="#498048" stroke-opacity="0.72" stroke-linecap="round" stroke-linejoin="round"/>
<path d="M233.515 220.889C233.699 219.849 233.955 217.586 233.515 216.852" stroke="#498048" stroke-opacity="0.72" stroke-linecap="round" stroke-linejoin="round"/>
<path d="M227.105 223.944C227.056 222.806 226.66 220.233 225.472 219.045" stroke="#498048" stroke-opacity="0.72" stroke-linecap="round" stroke-linejoin="round"/>
<path d="M228.996 223.551C228.344 222.318 227.536 219.449 229.525 217.834" stroke="#498048" stroke-opacity="0.72" stroke-linecap="round" stroke-linejoin="round"/>
<path d="M231.786 223.096C231.083 222.698 229.786 221.573 230.227 220.252" stroke="#498048" stroke-opacity="0.72" stroke-linecap="round" stroke-linejoin="round"/>
<path d="M237.933 223.371C237.688 222.484 237.584 220.38 239.125 219.059" stroke="#498048" stroke-opacity="0.72" stroke-linecap="round" stroke-linejoin="round"/>
<path d="M240.96 223.463C241.144 222.423 241.401 220.16 240.96 219.426" stroke="#498048" stroke-opacity="0.72" stroke-linecap="round" stroke-linejoin="round"/>
<path d="M258.05 220.93C258.001 219.792 257.605 217.219 256.417 216.032" stroke="#498048" stroke-opacity="0.72" stroke-linecap="round" stroke-linejoin="round"/>
<path d="M259.941 220.537C259.289 219.305 258.481 216.436 260.469 214.821" stroke="#498048" stroke-opacity="0.72" stroke-linecap="round" stroke-linejoin="round"/>
<path d="M262.731 220.082C262.028 219.685 260.731 218.559 261.171 217.238" stroke="#498048" stroke-opacity="0.72" stroke-linecap="round" stroke-linejoin="round"/>
<path d="M268.878 220.358C268.633 219.471 268.529 217.367 270.07 216.046" stroke="#498048" stroke-opacity="0.72" stroke-linecap="round" stroke-linejoin="round"/>
<path d="M271.905 220.449C272.088 219.41 272.345 217.147 271.905 216.413" stroke="#498048" stroke-opacity="0.72" stroke-linecap="round" stroke-linejoin="round"/>
<path d="M258.689 224.107C258.64 222.969 258.244 220.396 257.057 219.209" stroke="#498048" stroke-opacity="0.72" stroke-linecap="round" stroke-linejoin="round"/>
<path d="M260.58 223.714C259.928 222.482 259.12 219.613 261.109 217.997" stroke="#498048" stroke-opacity="0.72" stroke-linecap="round" stroke-linejoin="round"/>
<path d="M263.37 223.259C262.667 222.862 261.37 221.736 261.811 220.415" stroke="#498048" stroke-opacity="0.72" stroke-linecap="round" stroke-linejoin="round"/>
<path d="M269.517 223.534C269.272 222.648 269.168 220.544 270.709 219.223" stroke="#498048" stroke-opacity="0.72" stroke-linecap="round" stroke-linejoin="round"/>
<path d="M272.544 223.626C272.728 222.586 272.985 220.323 272.544 219.59" stroke="#498048" stroke-opacity="0.72" stroke-linecap="round" stroke-linejoin="round"/>
<path d="M270.368 222.84C270.319 221.702 269.923 219.129 268.735 217.941" stroke="#498048" stroke-opacity="0.72" stroke-linecap="round" stroke-linejoin="round"/>
<path d="M272.259 222.447C271.607 221.214 270.799 218.345 272.787 216.73" stroke="#498048" stroke-opacity="0.72" stroke-linecap="round" stroke-linejoin="round"/>
<path d="M275.049 221.992C274.346 221.594 273.049 220.469 273.49 219.148" stroke="#498048" stroke-opacity="0.72" stroke-linecap="round" stroke-linejoin="round"/>
<path d="M281.196 222.267C280.951 221.38 280.847 219.276 282.388 217.955" stroke="#498048" stroke-opacity="0.72" stroke-linecap="round" stroke-linejoin="round"/>
<path d="M284.223 222.359C284.407 221.319 284.663 219.056 284.223 218.322" stroke="#498048" stroke-opacity="0.72" stroke-linecap="round" stroke-linejoin="round"/>
<path d="M289.269 219.965C289.219 218.827 288.823 216.254 287.636 215.066" stroke="#498048" stroke-opacity="0.72" stroke-linecap="round" stroke-linejoin="round"/>
<path d="M291.16 219.572C290.507 218.339 289.7 215.47 291.688 213.855" stroke="#498048" stroke-opacity="0.72" stroke-linecap="round" stroke-linejoin="round"/>
<path d="M293.95 219.117C293.246 218.719 291.95 217.594 292.39 216.273" stroke="#498048" stroke-opacity="0.72" stroke-linecap="round" stroke-linejoin="round"/>
<path d="M300.096 219.392C299.852 218.505 299.748 216.401 301.289 215.08" stroke="#498048" stroke-opacity="0.72" stroke-linecap="round" stroke-linejoin="round"/>
<path d="M273.781 221.486C273.731 220.348 273.336 217.775 272.148 216.588" stroke="#498048" stroke-opacity="0.72" stroke-linecap="round" stroke-linejoin="round"/>
<path d="M275.672 221.093C275.02 219.861 274.212 216.992 276.2 215.376" stroke="#498048" stroke-opacity="0.72" stroke-linecap="round" stroke-linejoin="round"/>
<path d="M278.462 220.638C277.759 220.24 276.462 219.115 276.902 217.794" stroke="#498048" stroke-opacity="0.72" stroke-linecap="round" stroke-linejoin="round"/>
<path d="M284.609 220.913C284.364 220.026 284.26 217.922 285.801 216.601" stroke="#498048" stroke-opacity="0.72" stroke-linecap="round" stroke-linejoin="round"/>
<path d="M287.636 221.005C287.819 219.965 288.076 217.702 287.636 216.968" stroke="#498048" stroke-opacity="0.72" stroke-linecap="round" stroke-linejoin="round"/>
<path d="M286.099 221.486C286.05 220.348 285.654 217.775 284.466 216.588" stroke="#498048" stroke-opacity="0.72" stroke-linecap="round" stroke-linejoin="round"/>
<path d="M287.99 221.093C287.338 219.861 286.53 216.992 288.518 215.376" stroke="#498048" stroke-opacity="0.72" stroke-linecap="round" stroke-linejoin="round"/>
<path d="M290.78 220.638C290.077 220.24 288.78 219.115 289.22 217.794" stroke="#498048" stroke-opacity="0.72" stroke-linecap="round" stroke-linejoin="round"/>
<path d="M296.927 220.913C296.682 220.026 296.578 217.922 298.119 216.601" stroke="#498048" stroke-opacity="0.72" stroke-linecap="round" stroke-linejoin="round"/>
<path d="M299.954 221.005C300.137 219.965 300.394 217.702 299.954 216.968" stroke="#498048" stroke-opacity="0.72" stroke-linecap="round" stroke-linejoin="round"/>
<path d="M289.512 220.358C289.462 219.219 289.067 216.647 287.879 215.459" stroke="#498048" stroke-opacity="0.72" stroke-linecap="round" stroke-linejoin="round"/>
<path d="M291.403 219.965C290.751 218.732 289.943 215.863 291.931 214.248" stroke="#498048" stroke-opacity="0.72" stroke-linecap="round" stroke-linejoin="round"/>
<path d="M294.193 219.51C293.49 219.112 292.193 217.987 292.633 216.666" stroke="#498048" stroke-opacity="0.72" stroke-linecap="round" stroke-linejoin="round"/>
<path d="M300.339 219.785C300.095 218.898 299.991 216.794 301.532 215.473" stroke="#498048" stroke-opacity="0.72" stroke-linecap="round" stroke-linejoin="round"/>
<path d="M276.576 221.689C276.526 220.551 276.131 217.979 274.943 216.791" stroke="#498048" stroke-opacity="0.72" stroke-linecap="round" stroke-linejoin="round"/>
<path d="M278.467 221.297C277.815 220.064 277.007 217.195 278.995 215.58" stroke="#498048" stroke-opacity="0.72" stroke-linecap="round" stroke-linejoin="round"/>
<path d="M281.257 220.841C280.554 220.444 279.257 219.318 279.697 217.997" stroke="#498048" stroke-opacity="0.72" stroke-linecap="round" stroke-linejoin="round"/>
<path d="M287.404 221.117C287.159 220.23 287.055 218.126 288.596 216.805" stroke="#498048" stroke-opacity="0.72" stroke-linecap="round" stroke-linejoin="round"/>
<path d="M290.431 221.208C290.614 220.169 290.871 217.906 290.431 217.172" stroke="#498048" stroke-opacity="0.72" stroke-linecap="round" stroke-linejoin="round"/>
<path d="M284.021 224.263C283.972 223.125 283.576 220.552 282.388 219.365" stroke="#498048" stroke-opacity="0.72" stroke-linecap="round" stroke-linejoin="round"/>
<path d="M285.912 223.87C285.26 222.638 284.452 219.769 286.44 218.153" stroke="#498048" stroke-opacity="0.72" stroke-linecap="round" stroke-linejoin="round"/>
<path d="M288.702 223.415C287.999 223.018 286.702 221.892 287.143 220.571" stroke="#498048" stroke-opacity="0.72" stroke-linecap="round" stroke-linejoin="round"/>
<path d="M294.849 223.69C294.604 222.804 294.5 220.7 296.041 219.379" stroke="#498048" stroke-opacity="0.72" stroke-linecap="round" stroke-linejoin="round"/>
<path d="M297.876 223.782C298.06 222.742 298.316 220.479 297.876 219.746" stroke="#498048" stroke-opacity="0.72" stroke-linecap="round" stroke-linejoin="round"/>
<path d="M234.035 221.239C233.985 220.101 233.589 217.528 232.402 216.34" stroke="#498048" stroke-opacity="0.72" stroke-linecap="round" stroke-linejoin="round"/>
<path d="M235.926 220.846C235.273 219.613 234.465 216.744 236.454 215.129" stroke="#498048" stroke-opacity="0.72" stroke-linecap="round" stroke-linejoin="round"/>
<path d="M238.716 220.391C238.012 219.993 236.716 218.868 237.156 217.547" stroke="#498048" stroke-opacity="0.72" stroke-linecap="round" stroke-linejoin="round"/>
<path d="M244.862 220.666C244.618 219.779 244.514 217.675 246.055 216.354" stroke="#498048" stroke-opacity="0.72" stroke-linecap="round" stroke-linejoin="round"/>
<path d="M247.89 220.758C248.073 219.718 248.33 217.455 247.89 216.721" stroke="#498048" stroke-opacity="0.72" stroke-linecap="round" stroke-linejoin="round"/>
<path d="M234.674 224.415C234.624 223.277 234.229 220.705 233.041 219.517" stroke="#498048" stroke-opacity="0.72" stroke-linecap="round" stroke-linejoin="round"/>
<path d="M236.565 224.023C235.913 222.79 235.105 219.921 237.093 218.306" stroke="#498048" stroke-opacity="0.72" stroke-linecap="round" stroke-linejoin="round"/>
<path d="M239.355 223.568C238.652 223.17 237.355 222.045 237.795 220.724" stroke="#498048" stroke-opacity="0.72" stroke-linecap="round" stroke-linejoin="round"/>
<path d="M245.501 223.843C245.257 222.956 245.153 220.852 246.694 219.531" stroke="#498048" stroke-opacity="0.72" stroke-linecap="round" stroke-linejoin="round"/>
<path d="M248.529 223.934C248.712 222.895 248.969 220.632 248.529 219.898" stroke="#498048" stroke-opacity="0.72" stroke-linecap="round" stroke-linejoin="round"/>
<path d="M246.353 223.148C246.303 222.01 245.907 219.437 244.72 218.249" stroke="#498048" stroke-opacity="0.72" stroke-linecap="round" stroke-linejoin="round"/>
<path d="M248.244 222.755C247.591 221.522 246.784 218.654 248.772 217.038" stroke="#498048" stroke-opacity="0.72" stroke-linecap="round" stroke-linejoin="round"/>
<path d="M251.034 222.3C250.33 221.902 249.034 220.777 249.474 219.456" stroke="#498048" stroke-opacity="0.72" stroke-linecap="round" stroke-linejoin="round"/>
<path d="M257.18 222.575C256.936 221.688 256.832 219.584 258.373 218.263" stroke="#498048" stroke-opacity="0.72" stroke-linecap="round" stroke-linejoin="round"/>
<path d="M260.208 222.667C260.391 221.627 260.648 219.364 260.208 218.63" stroke="#498048" stroke-opacity="0.72" stroke-linecap="round" stroke-linejoin="round"/>
<path d="M265.253 220.273C265.204 219.135 264.808 216.562 263.621 215.374" stroke="#498048" stroke-opacity="0.72" stroke-linecap="round" stroke-linejoin="round"/>
<path d="M267.144 219.88C266.492 218.647 265.684 215.779 267.673 214.163" stroke="#498048" stroke-opacity="0.72" stroke-linecap="round" stroke-linejoin="round"/>
<path d="M269.934 219.425C269.231 219.027 267.934 217.902 268.375 216.581" stroke="#498048" stroke-opacity="0.72" stroke-linecap="round" stroke-linejoin="round"/>
<path d="M276.081 219.7C275.836 218.813 275.732 216.709 277.274 215.388" stroke="#498048" stroke-opacity="0.72" stroke-linecap="round" stroke-linejoin="round"/>
<path d="M279.108 219.792C279.292 218.752 279.549 216.489 279.108 215.755" stroke="#498048" stroke-opacity="0.72" stroke-linecap="round" stroke-linejoin="round"/>
<path d="M249.766 221.794C249.716 220.656 249.32 218.083 248.133 216.896" stroke="#498048" stroke-opacity="0.72" stroke-linecap="round" stroke-linejoin="round"/>
<path d="M251.657 221.401C251.004 220.169 250.196 217.3 252.185 215.684" stroke="#498048" stroke-opacity="0.72" stroke-linecap="round" stroke-linejoin="round"/>
<path d="M254.447 220.946C253.743 220.549 252.447 219.423 252.887 218.102" stroke="#498048" stroke-opacity="0.72" stroke-linecap="round" stroke-linejoin="round"/>
<path d="M260.593 221.221C260.348 220.334 260.245 218.231 261.786 216.91" stroke="#498048" stroke-opacity="0.72" stroke-linecap="round" stroke-linejoin="round"/>
<path d="M263.621 221.313C263.804 220.273 264.061 218.01 263.621 217.276" stroke="#498048" stroke-opacity="0.72" stroke-linecap="round" stroke-linejoin="round"/>
<path d="M262.084 221.794C262.034 220.656 261.638 218.083 260.451 216.896" stroke="#498048" stroke-opacity="0.72" stroke-linecap="round" stroke-linejoin="round"/>
<path d="M263.975 221.401C263.322 220.169 262.514 217.3 264.503 215.684" stroke="#498048" stroke-opacity="0.72" stroke-linecap="round" stroke-linejoin="round"/>
<path d="M266.765 220.946C266.061 220.549 264.765 219.423 265.205 218.102" stroke="#498048" stroke-opacity="0.72" stroke-linecap="round" stroke-linejoin="round"/>
<path d="M272.911 221.221C272.667 220.334 272.563 218.231 274.104 216.91" stroke="#498048" stroke-opacity="0.72" stroke-linecap="round" stroke-linejoin="round"/>
<path d="M275.939 221.313C276.122 220.273 276.379 218.01 275.939 217.276" stroke="#498048" stroke-opacity="0.72" stroke-linecap="round" stroke-linejoin="round"/>
<path d="M265.496 220.666C265.447 219.528 265.051 216.955 263.864 215.767" stroke="#498048" stroke-opacity="0.72" stroke-linecap="round" stroke-linejoin="round"/>
<path d="M267.388 220.273C266.735 219.04 265.927 216.172 267.916 214.556" stroke="#498048" stroke-opacity="0.72" stroke-linecap="round" stroke-linejoin="round"/>
<path d="M270.178 219.818C269.474 219.42 268.178 218.295 268.618 216.974" stroke="#498048" stroke-opacity="0.72" stroke-linecap="round" stroke-linejoin="round"/>
<path d="M276.324 220.093C276.079 219.206 275.975 217.102 277.517 215.781" stroke="#498048" stroke-opacity="0.72" stroke-linecap="round" stroke-linejoin="round"/>
<path d="M279.351 220.185C279.535 219.145 279.792 216.882 279.351 216.148" stroke="#498048" stroke-opacity="0.72" stroke-linecap="round" stroke-linejoin="round"/>
<path d="M252.561 221.998C252.511 220.86 252.115 218.287 250.928 217.099" stroke="#498048" stroke-opacity="0.72" stroke-linecap="round" stroke-linejoin="round"/>
<path d="M254.452 221.605C253.799 220.372 252.991 217.503 254.98 215.888" stroke="#498048" stroke-opacity="0.72" stroke-linecap="round" stroke-linejoin="round"/>
<path d="M257.242 221.15C256.538 220.752 255.242 219.627 255.682 218.306" stroke="#498048" stroke-opacity="0.72" stroke-linecap="round" stroke-linejoin="round"/>
<path d="M263.388 221.425C263.143 220.538 263.04 218.434 264.581 217.113" stroke="#498048" stroke-opacity="0.72" stroke-linecap="round" stroke-linejoin="round"/>
<path d="M266.416 221.517C266.599 220.477 266.856 218.214 266.416 217.48" stroke="#498048" stroke-opacity="0.72" stroke-linecap="round" stroke-linejoin="round"/>
<path d="M260.006 224.571C259.956 223.433 259.56 220.861 258.373 219.673" stroke="#498048" stroke-opacity="0.72" stroke-linecap="round" stroke-linejoin="round"/>
<path d="M261.897 224.179C261.244 222.946 260.437 220.077 262.425 218.462" stroke="#498048" stroke-opacity="0.72" stroke-linecap="round" stroke-linejoin="round"/>
<path d="M264.687 223.724C263.983 223.326 262.687 222.201 263.127 220.88" stroke="#498048" stroke-opacity="0.72" stroke-linecap="round" stroke-linejoin="round"/>
<path d="M270.833 223.999C270.589 223.112 270.485 221.008 272.026 219.687" stroke="#498048" stroke-opacity="0.72" stroke-linecap="round" stroke-linejoin="round"/>
<path d="M273.861 224.09C274.044 223.051 274.301 220.788 273.861 220.054" stroke="#498048" stroke-opacity="0.72" stroke-linecap="round" stroke-linejoin="round"/>
<path d="M265.149 162.112L271.002 164.825L270.021 165.866L270.092 168.561L268.554 170.192L268.56 172.371L266.624 174.426L266.297 177.206L264.475 179.139L264.208 182.434L261.813 184.975L261.869 187.311L259.697 189.615L259.548 192.662L257.146 195.21L257.013 198.154L254.67 200.64L254.457 203.285L252.532 205.327L252.07 208.459L250.199 210.444L250.304 212.506L248.279 214.655L248.228 216.604L246.604 218.327C242.745 216.826 235.089 213.802 235.334 213.712C238.777 210.229 256.645 177.86 265.149 162.112Z" fill="#919191" fill-opacity="0.78"/>
<path fill-rule="evenodd" clip-rule="evenodd" d="M281.495 154.539L266.43 147.631C263.205 153.202 259.58 164.635 270.877 165.803C270.701 165.779 270.966 165.672 271.513 165.45C273.788 164.526 280.948 161.619 281.495 154.539ZM276.364 155.472L268.301 151.705C266.619 154.645 264.762 160.7 270.783 161.392C270.69 161.379 270.83 161.323 271.119 161.209C272.325 160.732 276.117 159.232 276.364 155.472Z" fill="#784B21" fill-opacity="0.88"/>
</g>
<defs>
<clipPath id="clip0">
<rect width="300" height="250" fill="white"/>
</clipPath>
</defs>
</svg>
